<?xml version="1.0" encoding="utf-8"?>
<!-- Generator: Adobe Illustrator 25.0.0, SVG Export Plug-In . SVG Version: 6.00 Build 0)  -->
<svg version="1.1" id="Layer_1" xmlns="http://www.w3.org/2000/svg" xmlns:xlink="http://www.w3.org/1999/xlink" x="0px" y="0px"
	 viewBox="0 0 204.5 65.2" style="enable-background:new 0 0 204.5 65.2;" xml:space="preserve">
<style type="text/css">
	.st0{fill:#FFFFFF;}
	.st1{clip-path:url(#SVGID_2_);}
	.st2{fill:url(#Rectangle_3496_1_);}
	.st3{clip-path:url(#SVGID_4_);}
	.st4{fill:url(#Rectangle_3497_1_);}
	.st5{clip-path:url(#SVGID_6_);}
	.st6{fill:url(#Rectangle_3498_1_);}
	.st7{clip-path:url(#SVGID_8_);}
	.st8{fill:url(#Rectangle_3499_1_);}
	.st9{clip-path:url(#SVGID_10_);}
	.st10{fill:none;}
	.st11{clip-path:url(#SVGID_12_);}
	.st12{clip-path:url(#SVGID_14_);}
	.st13{clip-path:url(#SVGID_16_);}
</style>
<g>
	<path class="st0" d="M73.2,16.5h-4.5v1.3h3.2c0,0.6-0.3,1.2-0.7,1.6c-0.6,0.6-1.5,1-2.4,1c0,0,0,0-0.1,0c-0.9,0-1.7-0.4-2.4-1
		c-0.6-0.6-1-1.5-1-2.4c0,0,0-0.1,0-0.1c0-0.9,0.4-1.7,1-2.3c0.6-0.6,1.5-1,2.3-1c0,0,0,0,0,0c0.9,0,1.8,0.3,2.3,1l0.1,0.1l0.9-0.9
		l-0.1-0.1c-0.4-0.4-0.9-0.8-1.4-1c-0.6-0.3-1.2-0.4-1.8-0.4c0,0,0,0,0,0l-0.1,0c-1.2,0-2.4,0.5-3.3,1.4c-0.9,0.9-1.3,2.1-1.3,3.3
		c0,0,0,0.1,0,0.1c0,2.6,2.1,4.6,4.7,4.6c0,0,0,0,0,0c0.1,0,0.1,0,0.2,0c1.2,0,2.3-0.5,3.2-1.3c0.8-0.8,1.2-1.9,1.1-3
		C73.3,17.1,73.3,16.8,73.2,16.5L73.2,16.5z"/>
	<polygon class="st0" points="74.7,21.5 80.1,21.5 80.1,20.2 76,20.2 76,17.6 79.7,17.6 79.7,16.3 76,16.3 76,13.7 80.1,13.7 
		80.1,12.4 74.7,12.4 	"/>
	<polygon class="st0" points="81.1,13.7 83.5,13.7 83.5,21.5 84.9,21.5 84.9,13.7 87.3,13.7 87.3,12.4 81.1,12.4 	"/>
	<rect x="91.5" y="12.4" class="st0" width="1.3" height="9"/>
	<polygon class="st0" points="94.1,13.7 96.6,13.7 96.6,21.5 97.9,21.5 97.9,13.7 100.4,13.7 100.4,12.4 94.1,12.4 	"/>
	<path class="st0" d="M105.2,13.6c-0.9,0.9-1.4,2.1-1.3,3.3c0,1.2,0.5,2.5,1.3,3.4c0.9,0.9,2.1,1.4,3.3,1.4s2.4-0.5,3.3-1.4l0,0
		c0.9-0.9,1.4-2.1,1.3-3.3c0-1.2-0.5-2.5-1.3-3.4C110,11.8,107.1,11.8,105.2,13.6z M106.2,19.4c-0.6-0.7-1-1.6-1-2.5
		c0-0.9,0.3-1.8,1-2.5c1.3-1.3,3.4-1.3,4.7,0c0.6,0.7,1,1.6,1,2.5c0,0.9-0.3,1.8-1,2.5C109.6,20.7,107.5,20.7,106.2,19.4z"/>
	<polygon class="st0" points="120.3,12.4 120.3,17.7 120.3,19.1 116.1,12.4 114.6,12.4 114.6,21.5 115.9,21.5 115.9,15.8 
		115.9,14.4 120.2,21.4 120.3,21.5 121.6,21.5 121.6,12.4 	"/>
</g>
<path id="Path_24630" class="st0" d="M103.7,34.3c-3.5,0-6.3,2.8-6.2,6.3s2.8,6.3,6.3,6.2c3.5,0,6.2-2.8,6.2-6.3
	c0.1-3.4-2.7-6.2-6.1-6.3C103.9,34.3,103.8,34.3,103.7,34.3 M103.7,44.3c-2,0-3.6-1.7-3.5-3.7c0,0,0-0.1,0-0.1
	c-0.1-2,1.3-3.7,3.3-3.8c2-0.1,3.7,1.3,3.8,3.3c0,0.2,0,0.3,0,0.5C107.3,42.5,105.8,44.2,103.7,44.3
	C103.8,44.3,103.7,44.3,103.7,44.3 M90,34.3c-3.5,0-6.3,2.8-6.2,6.3c0,3.5,2.8,6.3,6.3,6.2c3.5,0,6.2-2.8,6.2-6.3
	c0.1-3.4-2.7-6.2-6.1-6.3C90.1,34.3,90.1,34.3,90,34.3 M90,44.3c-2,0-3.6-1.7-3.5-3.7c0,0,0-0.1,0-0.1c-0.1-2,1.3-3.7,3.3-3.8
	c2-0.1,3.7,1.3,3.8,3.3c0,0.2,0,0.3,0,0.5C93.6,42.5,92.1,44.2,90,44.3C90,44.3,90,44.3,90,44.3 M73.7,36.2v2.7H80
	c-0.1,1.2-0.6,2.4-1.4,3.3c-1.3,1.3-3.1,2-4.9,1.9c-3.9,0-7.1-3.2-7.1-7.1s3.2-7.1,7.1-7.1l0,0c1.8,0,3.5,0.7,4.8,1.9l1.9-1.9
	c-1.8-1.8-4.2-2.7-6.7-2.7c-5.4,0-9.8,4.3-9.9,9.7c0.1,5.4,4.5,9.7,9.9,9.7c2.6,0.1,5-0.9,6.8-2.7c1.5-1.7,2.4-3.9,2.3-6.2
	c0-0.6,0-1.1-0.1-1.7L73.7,36.2z M140.4,38.3c-0.8-2.3-2.9-3.9-5.4-4c-3.3,0-5.9,2.7-5.9,6c0,0.1,0,0.2,0,0.3
	c-0.1,3.4,2.6,6.2,6,6.3c0.1,0,0.1,0,0.2,0c2.1,0,4.1-1,5.2-2.8l-2.1-1.4c-0.7,1.1-1.8,1.7-3.1,1.7c-1.3,0.1-2.5-0.7-3-1.9l8.4-3.5
	L140.4,38.3z M131.9,40.3c-0.1-1.9,1.3-3.5,3.2-3.7c0,0,0,0,0.1,0c1-0.1,1.9,0.5,2.3,1.3L131.9,40.3z M125.1,46.4h2.8V28h-2.8
	L125.1,46.4z M120.6,35.7L120.6,35.7c-0.9-0.9-2.1-1.4-3.4-1.4c-3.5,0.2-6.1,3.1-6,6.5c0.1,3.3,2.7,5.9,6,6c1.3,0,2.5-0.5,3.3-1.4
	h0.1v0.9c0,2.4-1.3,3.7-3.3,3.7c-1.4,0-2.7-0.9-3.2-2.2l-2.4,1c0.9,2.2,3.1,3.7,5.6,3.7c3.2,0,6-1.9,6-6.5V34.6h-2.6V35.7z
	 M117.4,44.3c-2-0.1-3.6-1.7-3.5-3.7c0,0,0,0,0-0.1c-0.1-2,1.4-3.7,3.4-3.8c0,0,0,0,0.1,0c1.9,0.1,3.5,1.8,3.4,3.7c0,0,0,0.1,0,0.1
	c0.2,1.9-1.3,3.6-3.2,3.8C117.5,44.3,117.5,44.3,117.4,44.3 M153.3,28h-6.6v18.4h2.7v-7h3.8c3.2,0.2,5.9-2.3,6-5.4s-2.3-5.9-5.4-6
	C153.7,28,153.5,28,153.3,28 M153.4,36.9h-3.9v-6.3h3.9c1.7,0,3.2,1.3,3.2,3.1c0,1.7-1.3,3.2-3.1,3.2
	C153.5,36.9,153.5,36.9,153.4,36.9 M170.4,34.2c-2.1-0.1-4,1-4.9,2.8l2.4,1c0.5-0.9,1.5-1.4,2.5-1.4c1.5-0.1,2.7,0.9,2.9,2.4v0.2
	c-0.9-0.5-1.9-0.7-2.9-0.7c-2.6,0-5.3,1.4-5.3,4.1c0,2.5,2.2,4.1,4.6,4.1c1.4,0.1,2.8-0.6,3.5-1.8h0.1v1.4h2.7v-7.1
	C176,36.1,173.6,34.2,170.4,34.2 M170.1,44.3c-0.9,0-2.2-0.5-2.2-1.6c0-1.4,1.6-2,2.9-2c0.9,0,1.7,0.2,2.5,0.6
	C173.1,43.1,171.7,44.3,170.1,44.3 M185.7,34.6l-3.1,8h-0.1l-3.3-8h-3l4.9,11.2l-2.8,6.2h2.9l7.6-17.4L185.7,34.6z M160.9,46.4h2.7
	V28h-2.7V46.4z"/>
<g>
	<defs>
		<path id="SVGID_1_" d="M18.7,13.3c-0.5,0.6-0.7,1.3-0.7,2.1V48c0,0.8,0.2,1.5,0.7,2.1l0.1,0.1L37,31.9v-0.4L18.8,13.2L18.7,13.3z"
			/>
	</defs>
	<clipPath id="SVGID_2_">
		<use xlink:href="#SVGID_1_"  style="overflow:visible;"/>
	</clipPath>
	<g id="Group_10859" transform="translate(-16838.299 5134.004)" class="st1">
		
			<linearGradient id="Rectangle_3496_1_" gradientUnits="userSpaceOnUse" x1="15986.7432" y1="-4586.0425" x2="15986.7793" y2="-4586.0425" gradientTransform="matrix(28.005 -28.005 -28.005 -28.005 -559291.4375 314191)">
			<stop  offset="0" style="stop-color:#00A0FF"/>
			<stop  offset="7.000001e-03" style="stop-color:#00A1FF"/>
			<stop  offset="0.26" style="stop-color:#00BEFF"/>
			<stop  offset="0.512" style="stop-color:#00D2FF"/>
			<stop  offset="0.76" style="stop-color:#00DFFF"/>
			<stop  offset="1" style="stop-color:#00E3FF"/>
		</linearGradient>
		<polygon id="Rectangle_3496" class="st2" points="16837.8,-5102.3 16865.8,-5130.3 16893.8,-5102.3 16865.8,-5074.3 		"/>
	</g>
</g>
<g>
	<defs>
		<path id="SVGID_3_" d="M37,31.5v0.4l6.1,6.1l0.1-0.1l7.2-4.1c2.1-1.2,2.1-3.1,0-4.3l-7.2-4.1l-0.1-0.1L37,31.5z"/>
	</defs>
	<clipPath id="SVGID_4_">
		<use xlink:href="#SVGID_3_"  style="overflow:visible;"/>
	</clipPath>
	<g id="Group_10861" transform="translate(-16819.246 5146.178)" class="st3">
		
			<linearGradient id="Rectangle_3497_1_" gradientUnits="userSpaceOnUse" x1="16014.9033" y1="-4614.1411" x2="16014.998" y2="-4614.1411" gradientTransform="matrix(15.497 0 0 -12.609 -231360.4219 -63294.207)">
			<stop  offset="0" style="stop-color:#FFE000"/>
			<stop  offset="0.409" style="stop-color:#FFBD00"/>
			<stop  offset="0.775" style="stop-color:#FFA500"/>
			<stop  offset="1" style="stop-color:#FF9C00"/>
		</linearGradient>
		<rect id="Rectangle_3497" x="16856.3" y="-5120.8" class="st4" width="15.5" height="12.6"/>
	</g>
</g>
<g>
	<defs>
		<path id="SVGID_5_" d="M18.7,50.1c0.7,0.7,1.8,0.8,3.1,0.1l21.5-12.2L37,31.7L18.7,50.1z"/>
	</defs>
	<clipPath id="SVGID_6_">
		<use xlink:href="#SVGID_5_"  style="overflow:visible;"/>
	</clipPath>
	<g id="Group_10863" transform="translate(-16837.617 5152.483)" class="st5">
		
			<linearGradient id="Rectangle_3498_1_" gradientUnits="userSpaceOnUse" x1="15987.5342" y1="-4611.3589" x2="15987.5811" y2="-4611.3589" gradientTransform="matrix(21.8878 -21.8878 -21.8878 -21.8878 -434015.0938 243907.625)">
			<stop  offset="0" style="stop-color:#FF3A44"/>
			<stop  offset="1" style="stop-color:#C31162"/>
		</linearGradient>
		<polygon id="Rectangle_3498" class="st6" points="16846.7,-5111.2 16868.6,-5133.1 16890.5,-5111.2 16868.6,-5089.3 		"/>
	</g>
</g>
<g>
	<defs>
		<path id="SVGID_7_" d="M18.7,13.3L37,31.7l6.2-6.2L21.7,13.2c-0.5-0.3-1.1-0.5-1.7-0.5C19.5,12.7,19,12.9,18.7,13.3"/>
	</defs>
	<clipPath id="SVGID_8_">
		<use xlink:href="#SVGID_7_"  style="overflow:visible;"/>
	</clipPath>
	<g id="Group_10865" transform="translate(-16837.617 5133.525)" class="st7">
		
			<linearGradient id="Rectangle_3499_1_" gradientUnits="userSpaceOnUse" x1="15987.5703" y1="-4592.5591" x2="15987.6182" y2="-4592.5591" gradientTransform="matrix(21.7775 -21.7775 -21.7775 -21.7775 -431334.25 243062.8125)">
			<stop  offset="0" style="stop-color:#32A071"/>
			<stop  offset="6.800000e-02" style="stop-color:#2DA771"/>
			<stop  offset="0.476" style="stop-color:#15CF74"/>
			<stop  offset="0.801" style="stop-color:#06E775"/>
			<stop  offset="1" style="stop-color:#00F076"/>
		</linearGradient>
		<polygon id="Rectangle_3499" class="st8" points="16846.8,-5111.3 16868.6,-5133.1 16890.4,-5111.3 16868.6,-5089.5 		"/>
	</g>
</g>
<path id="Path_24617" class="st0" d="M194.9,3.4c3.4,0,6.2,2.8,6.2,6.2v44.2c0,3.4-2.8,6.2-6.2,6.2H10.6c-3.4,0-6.2-2.8-6.2-6.2V9.6
	c0-3.4,2.8-6.2,6.2-6.2H194.9 M194.9,2.2H10.6c-4.1,0-7.4,3.3-7.4,7.4v44.2c0,4.1,3.3,7.4,7.4,7.4h184.3c4.1,0,7.4-3.3,7.4-7.4V9.6
	C202.3,5.5,199,2.2,194.9,2.2"/>
<defs>
    <clipPath id="clip-path">
      <path id="Path_24631" data-name="Path 24631" d="M10.655,7.573a2.952,2.952,0,0,0-.682,2.071v32.6a2.943,2.943,0,0,0,.682,2.07l.108.108L29.027,26.159v-.43L10.763,7.465Z" transform="translate(-9.973 -7.465)" fill="rgba(0,0,0,0)"/>
    </clipPath>
    <linearGradient id="linear-gradient" x1="-0.112" y1="1.238" x2="-0.075" y2="1.238" gradientUnits="objectBoundingBox">
      <stop offset="0" stop-color="#00a0ff"/>
      <stop offset="0.007" stop-color="#00a1ff"/>
      <stop offset="0.26" stop-color="#00beff"/>
      <stop offset="0.512" stop-color="#00d2ff"/>
      <stop offset="0.76" stop-color="#00dfff"/>
      <stop offset="1" stop-color="#00e3ff"/>
    </linearGradient>
    <clipPath id="clip-path-2">
      <path id="Path_24632" data-name="Path 24632" d="M22.9,21.813v.43l6.086,6.089.139-.077,7.213-4.1c2.059-1.172,2.059-3.088,0-4.259l-7.213-4.1-.137-.078Z" transform="translate(-22.899 -15.724)" fill="rgba(0,0,0,0)"/>
    </clipPath>
    <linearGradient id="linear-gradient-2" x1="-2.178" y1="2.838" x2="-2.083" y2="2.838" gradientUnits="objectBoundingBox">
      <stop offset="0" stop-color="#ffe000"/>
      <stop offset="0.409" stop-color="#ffbd00"/>
      <stop offset="0.775" stop-color="orange"/>
      <stop offset="1" stop-color="#ff9c00"/>
    </linearGradient>
    <clipPath id="clip-path-3">
      <path id="Path_24633" data-name="Path 24633" d="M10.436,38.371c.678.719,1.8.809,3.063.091L35.032,26.227,28.807,20Z" transform="translate(-10.436 -20.001)" fill="rgba(0,0,0,0)"/>
    </clipPath>
    <linearGradient id="linear-gradient-3" x1="-0.394" y1="1.145" x2="-0.347" y2="1.145" gradientUnits="objectBoundingBox">
      <stop offset="0" stop-color="#ff3a44"/>
      <stop offset="1" stop-color="#c31162"/>
    </linearGradient>
    <clipPath id="clip-path-4">
      <path id="Path_24634" data-name="Path 24634" d="M10.436,7.727,28.807,26.1l6.225-6.226L13.5,7.637a3.386,3.386,0,0,0-1.652-.5,1.882,1.882,0,0,0-1.411.587" transform="translate(-10.436 -7.14)" fill="rgba(0,0,0,0)"/>
    </clipPath>
    <linearGradient id="linear-gradient-4" x1="-0.399" y1="1.77" x2="-0.351" y2="1.77" gradientUnits="objectBoundingBox">
      <stop offset="0" stop-color="#32a071"/>
      <stop offset="0.068" stop-color="#2da771"/>
      <stop offset="0.476" stop-color="#15cf74"/>
      <stop offset="0.801" stop-color="#06e775"/>
      <stop offset="1" stop-color="#00f076"/>
    </linearGradient>
  </defs>
  <g id="Group_11134" data-name="Group 11134" transform="translate(5180.299 -7202.525)">
    <g id="Group_10859" data-name="Group 10859" transform="translate(-5164.299 7216.004)" clip-path="url(#clip-path)">
      <rect id="Rectangle_3496" data-name="Rectangle 3496" width="39.605" height="39.605" transform="translate(-18.478 18.479) rotate(-45)" fill="url(#linear-gradient)"/>
    </g>
    <g id="Group_10861" data-name="Group 10861" transform="translate(-5145.246 7228.178)" clip-path="url(#clip-path-2)">
      <rect id="Rectangle_3497" data-name="Rectangle 3497" width="15.497" height="12.609" transform="translate(0 0)" fill="url(#linear-gradient-2)"/>
    </g>
    <g id="Group_10863" data-name="Group 10863" transform="translate(-5163.617 7234.483)" clip-path="url(#clip-path-3)">
      <rect id="Rectangle_3498" data-name="Rectangle 3498" width="30.954" height="30.954" transform="translate(-9.59 9.59) rotate(-45)" fill="url(#linear-gradient-3)"/>
    </g>
    <g id="Group_10865" data-name="Group 10865" transform="translate(-5163.617 7215.525)" clip-path="url(#clip-path-4)">
      <rect id="Rectangle_3499" data-name="Rectangle 3499" width="30.798" height="30.798" transform="translate(-9.479 9.479) rotate(-45)" fill="url(#linear-gradient-4)"/>
    </g>
  </g>
</svg>
