<svg id="Group_10680" data-name="Group 10680" xmlns="http://www.w3.org/2000/svg" width="40.537" height="23.702" viewBox="0 0 40.537 23.702">
  <path id="Path_8094" data-name="Path 8094" d="M126.222,26.475a14.494,14.494,0,0,0-24.045,0h3.438a11.706,11.706,0,0,1,17.169,0Z" transform="translate(-89.593 -20.076)" fill="#2b4a91"/>
  <path id="Path_8095" data-name="Path 8095" d="M33.735,84.64l-.065.065a4.952,4.952,0,0,1-3.539,1.655,4.719,4.719,0,0,1,0-9.431,4.945,4.945,0,0,1,3.539,1.658l.065.067,1.7-2.056-.044-.052a6.449,6.449,0,0,0-5.176-2.484,7.852,7.852,0,0,0-5.367,1.968,8.063,8.063,0,0,0,0,11.228,7.831,7.831,0,0,0,5.367,1.973,6.471,6.471,0,0,0,5.176-2.481l.044-.056Z" transform="translate(-22.571 -65.528)" fill="#2b4a91"/>
  <path id="Path_8096" data-name="Path 8096" d="M114.745,90.275h2.991V75.636h-2.991Z" transform="translate(-100.174 -66.853)" fill="#2b4a91"/>
  <path id="Path_8097" data-name="Path 8097" d="M159.464,62.806a4.371,4.371,0,0,1-2.215.734c-.968,0-1.4-.511-1.4-1.655V54.112h3.041V51.353H155.85v-4.56l-2.937,1.574v2.986h-2.529v2.759h2.529v8.27c0,2.253,1.333,3.793,3.319,3.833a4.676,4.676,0,0,0,2.651-.673l.031-.02.722-2.823Z" transform="translate(-130.18 -42.57)" fill="#2b4a91"/>
  <path id="Path_8098" data-name="Path 8098" d="M223.462,90.275h2.991V75.636h-2.991Z" transform="translate(-191.705 -66.853)" fill="#2b4a91"/>
  <path id="Path_8099" data-name="Path 8099" d="M263.463,48.181c0,.148-.1.212-.238.212h-.393v-.424h.393a.21.21,0,0,1,.238.212m.257-.007a.437.437,0,0,0-.488-.45h-.654v1.49h.253v-.575h.287l.291.575h.3l-.306-.6a.424.424,0,0,0,.318-.439m.522.321a1.146,1.146,0,1,1-1.146-1.146,1.124,1.124,0,0,1,1.146,1.146m.219,0A1.365,1.365,0,1,0,263.1,49.86a1.339,1.339,0,0,0,1.365-1.365" transform="translate(-223.924 -42.853)" fill="#2b4a91"/>
</svg>
