<svg id="Group_8474" data-name="Group 8474" xmlns="http://www.w3.org/2000/svg" width="58.01" height="33.919" viewBox="0 0 58.01 33.919">
  <path id="Path_8094" data-name="Path 8094" d="M136.587,29.233a20.742,20.742,0,0,0-34.41,0H107.1a16.752,16.752,0,0,1,24.569,0Z" transform="translate(-84.168 -20.076)" fill="#e50019"/>
  <path id="Path_8095" data-name="Path 8095" d="M38.547,89.2l-.093.093a7.087,7.087,0,0,1-5.064,2.369,6.753,6.753,0,0,1,0-13.5,7.076,7.076,0,0,1,5.064,2.373l.093.1,2.43-2.942-.063-.075a9.228,9.228,0,0,0-7.407-3.554,11.236,11.236,0,0,0-7.68,2.816,11.538,11.538,0,0,0,0,16.067,11.206,11.206,0,0,0,7.68,2.823,9.26,9.26,0,0,0,7.407-3.551l.063-.08Z" transform="translate(-22.571 -61.849)" fill="#003773"/>
  <path id="Path_8096" data-name="Path 8096" d="M114.745,96.586h4.281V75.636h-4.281Z" transform="translate(-93.893 -63.067)" fill="#003773"/>
  <path id="Path_8097" data-name="Path 8097" d="M163.377,69.708a6.256,6.256,0,0,1-3.17,1.051c-1.386,0-2-.731-2-2.368V57.266h4.351V53.319h-4.351V46.793L154,49.046v4.273h-3.619v3.948H154V69.1c0,3.225,1.907,5.428,4.75,5.485a6.692,6.692,0,0,0,3.794-.963l.044-.029,1.033-4.04Z" transform="translate(-121.471 -40.749)" fill="#003773"/>
  <path id="Path_8098" data-name="Path 8098" d="M223.462,96.586h4.28V75.636h-4.28Z" transform="translate(-178.016 -63.067)" fill="#003773"/>
  <path id="Path_8099" data-name="Path 8099" d="M264.209,48.634c0,.211-.146.3-.341.3h-.563v-.606h.563a.3.3,0,0,1,.341.3m.368-.011a.625.625,0,0,0-.7-.644h-.936v2.132h.362v-.823h.411l.417.823h.428l-.438-.861a.606.606,0,0,0,.455-.628m.746.46a1.64,1.64,0,1,1-1.639-1.639,1.608,1.608,0,0,1,1.639,1.639m.314,0a1.953,1.953,0,1,0-1.953,1.953,1.916,1.916,0,0,0,1.953-1.953" transform="translate(-207.628 -41.01)" fill="#003773"/>
</svg>
