<svg id="_Group_" data-name=" Group " xmlns="http://www.w3.org/2000/svg" width="87.358" height="16.923" viewBox="0 0 87.358 16.923">
  <path id="_Path_" data-name=" Path " d="M6.843,2.813c-1.024,0-1.332.451-1.332,1.455V5.927H8.256l-.266,2.7H5.511v8.174h-3.3V8.632H0V5.948H2.213V4.329C2.213,1.584,3.319.15,6.372.15A15.194,15.194,0,0,1,8.3.273v2.54" transform="translate(0 -0.15)" fill="#2b4a91"/>
  <path id="_Compound_Path_" data-name=" Compound Path " d="M242.164,164.365c0-3.032,1.434-5.327,4.466-5.327a3.241,3.241,0,0,1,3.135,1.905v-1.659h3.155v10.879h-3.176v-1.639a3.2,3.2,0,0,1-3.135,1.864c-3.012,0-4.466-2.274-4.466-5.327m3.319.041c0,1.618.594,2.7,2.131,2.7,1.352,0,2.028-.983,2.028-2.54V164.16c0-1.557-.7-2.54-2.028-2.54-1.537,0-2.131,1.065-2.131,2.7v.779Z" transform="translate(-233.683 -153.486)" fill="#2b4a91"/>
  <path id="_Path_2" data-name=" Path 2" d="M591.332,159.038a5.884,5.884,0,0,1,3.155.738l-.738,2.336a5.044,5.044,0,0,0-2.192-.492c-1.782,0-2.561,1.024-2.561,2.786v.635c0,1.762.778,2.786,2.561,2.786a5.064,5.064,0,0,0,2.192-.512l.738,2.336a6.025,6.025,0,0,1-3.155.738c-3.872,0-5.614-2.069-5.614-5.409v-.512c0-3.339,1.741-5.429,5.614-5.429" transform="translate(-565.251 -153.486)" fill="#2b4a91"/>
  <path id="_Compound_Path_2" data-name=" Compound Path 2" d="M848.968,165.123v-.963c0-3.094,1.762-5.122,5.347-5.122,3.38,0,4.876,2.049,4.876,5.081v1.741h-6.925c.061,1.5.738,2.151,2.561,2.151a9.833,9.833,0,0,0,3.5-.656l.594,2.254a10.659,10.659,0,0,1-4.221.8c-4.179-.021-5.736-2.09-5.736-5.286m3.3-1.434h3.974v-.266c0-1.188-.471-2.131-1.926-2.131-1.475,0-2.049.942-2.049,2.4" transform="translate(-819.302 -153.486)" fill="#2b4a91"/>
  <path id="_Compound_Path_3" data-name=" Compound Path 3" d="M1191.654,12.856c0,3.032-1.455,5.327-4.487,5.327a3.358,3.358,0,0,1-3.237-1.864v1.639h-3.114V1.609l3.3-.287V8.595a3.283,3.283,0,0,1,3.073-1.741c3.011,0,4.487,2.274,4.487,5.327m-3.319-.082c0-1.537-.594-2.684-2.172-2.684-1.352,0-2.069.963-2.069,2.52v1.147c0,1.557.738,2.52,2.069,2.52,1.578,0,2.172-1.147,2.172-2.684V12.1Z" transform="translate(-1139.555 -1.281)" fill="#2b4a91"/>
  <path id="_Compound_Path_4" data-name=" Compound Path 4" d="M1522.045,164.979v-.553c0-3.135,1.782-5.388,5.409-5.388s5.409,2.254,5.409,5.388v.553c0,3.135-1.783,5.388-5.409,5.388s-5.409-2.233-5.409-5.388m7.539-.778c0-1.434-.594-2.581-2.131-2.581s-2.131,1.147-2.131,2.581v1.024c0,1.434.594,2.581,2.131,2.581s2.131-1.147,2.131-2.581Z" transform="translate(-1468.86 -153.486)" fill="#2b4a91"/>
  <path id="_Compound_Path_5" data-name=" Compound Path 5" d="M1863.86,164.979v-.553c0-3.135,1.782-5.388,5.409-5.388s5.409,2.254,5.409,5.388v.553c0,3.135-1.782,5.388-5.409,5.388s-5.409-2.233-5.409-5.388m7.54-.778c0-1.434-.594-2.581-2.131-2.581s-2.131,1.147-2.131,2.581v1.024c0,1.434.594,2.581,2.131,2.581s2.131-1.147,2.131-2.581Z" transform="translate(-1798.731 -153.486)" fill="#2b4a91"/>
  <path id="_Path_3" data-name=" Path 3" d="M2212.471,11.7l3.257-5.2h3.483l-3.4,5.388,3.544,5.511h-3.5l-3.38-5.327v5.327h-3.278V1.043l3.278-.307" transform="translate(-2131.997 -0.716)" fill="#2b4a91"/>
</svg>
