<svg id="_Group_" data-name=" Group " xmlns="http://www.w3.org/2000/svg" width="130.072" height="25.197" viewBox="0 0 130.072 25.197">
  <path id="_Path_" data-name=" Path " d="M10.189,4.116c-1.525,0-1.983.671-1.983,2.166V8.752h4.088l-.4,4.027H8.206V24.95H3.295V12.779H0v-4H3.295V6.373C3.295,2.285,4.942.15,9.487.15a22.623,22.623,0,0,1,2.867.183V4.116" transform="translate(0 -0.15)" fill="#2756d8"/>
  <path id="_Compound_Path_" data-name=" Compound Path " d="M242.174,166.969c0-4.515,2.135-7.931,6.65-7.931a4.826,4.826,0,0,1,4.667,2.837V159.4h4.7v16.2h-4.728v-2.44a4.769,4.769,0,0,1-4.667,2.776c-4.484,0-6.65-3.386-6.65-7.931m4.942.061c0,2.41.885,4.027,3.172,4.027,2.013,0,3.02-1.464,3.02-3.783v-1.647c0-2.318-1.037-3.783-3.02-3.783-2.288,0-3.172,1.586-3.172,4.027v1.159Z" transform="translate(-229.546 -150.771)" fill="#2756d8"/>
  <path id="_Path_2" data-name=" Path 2" d="M594.076,159.038a8.761,8.761,0,0,1,4.7,1.1l-1.1,3.478a7.51,7.51,0,0,0-3.264-.732c-2.654,0-3.813,1.525-3.813,4.149v.946c0,2.623,1.159,4.149,3.813,4.149a7.539,7.539,0,0,0,3.264-.763l1.1,3.478a8.971,8.971,0,0,1-4.7,1.1c-5.765,0-8.358-3.081-8.358-8.053v-.763c0-4.972,2.593-8.084,8.358-8.084" transform="translate(-555.244 -150.771)" fill="#2756d8"/>
  <path id="_Compound_Path_2" data-name=" Compound Path 2" d="M848.968,168.1v-1.434c0-4.606,2.623-7.626,7.962-7.626,5.033,0,7.26,3.05,7.26,7.565V169.2H853.879c.092,2.227,1.1,3.2,3.813,3.2a14.64,14.64,0,0,0,5.216-.976l.885,3.356a15.869,15.869,0,0,1-6.284,1.19c-6.223-.031-8.541-3.111-8.541-7.87m4.911-2.135H859.8v-.4c0-1.769-.7-3.172-2.867-3.172-2.2,0-3.05,1.4-3.05,3.569" transform="translate(-804.797 -150.771)" fill="#2756d8"/>
  <path id="_Compound_Path_3" data-name=" Compound Path 3" d="M1196.953,18.5c0,4.515-2.166,7.931-6.68,7.931a5,5,0,0,1-4.82-2.776v2.44h-4.637V1.749l4.911-.427V12.151a4.889,4.889,0,0,1,4.576-2.593c4.484,0,6.681,3.386,6.681,7.931m-4.942-.122c0-2.288-.885-4-3.234-4-2.013,0-3.081,1.434-3.081,3.752v1.708c0,2.318,1.1,3.752,3.081,3.752,2.349,0,3.234-1.708,3.234-4v-1.22Z" transform="translate(-1119.38 -1.261)" fill="#2756d8"/>
  <path id="_Compound_Path_4" data-name=" Compound Path 4" d="M1522.045,167.884v-.824c0-4.667,2.654-8.023,8.053-8.023s8.053,3.355,8.053,8.023v.824c0,4.667-2.654,8.023-8.053,8.023s-8.053-3.325-8.053-8.023m11.226-1.159c0-2.135-.885-3.844-3.173-3.844s-3.172,1.708-3.172,3.844v1.525c0,2.135.884,3.844,3.172,3.844s3.173-1.708,3.173-3.844Z" transform="translate(-1442.856 -150.771)" fill="#2756d8"/>
  <path id="_Compound_Path_5" data-name=" Compound Path 5" d="M1863.86,167.884v-.824c0-4.667,2.654-8.023,8.053-8.023s8.053,3.355,8.053,8.023v.824c0,4.667-2.654,8.023-8.053,8.023s-8.053-3.325-8.053-8.023m11.226-1.159c0-2.135-.885-3.844-3.173-3.844s-3.172,1.708-3.172,3.844v1.525c0,2.135.884,3.844,3.172,3.844s3.173-1.708,3.173-3.844Z" transform="translate(-1766.886 -150.771)" fill="#2756d8"/>
  <path id="_Path_3" data-name=" Path 3" d="M2214.074,17.056l4.85-7.748h5.186l-5.064,8.023,5.277,8.206h-5.216l-5.033-7.931v7.931h-4.881V1.194l4.881-.458" transform="translate(-2094.252 -0.706)" fill="#2756d8"/>
</svg>
