<svg xmlns="http://www.w3.org/2000/svg" xmlns:xlink="http://www.w3.org/1999/xlink" width="135.822" height="35.868" viewBox="0 0 135.822 35.868">
  <defs>
    <linearGradient id="linear-gradient" x1="0.535" y1="0.572" x2="0.535" y2="1.572" gradientUnits="objectBoundingBox">
      <stop offset="0" stop-color="#f7e830"/>
      <stop offset="1" stop-color="#fdcb06"/>
    </linearGradient>
    <radialGradient id="radial-gradient" cx="0.496" cy="3.536" r="4.378" gradientTransform="translate(0.449) scale(0.154 1)" gradientUnits="objectBoundingBox">
      <stop offset="0.596" stop-color="#f29405"/>
      <stop offset="0.736" stop-color="#f7d01e"/>
      <stop offset="1" stop-color="#fdcb06"/>
    </radialGradient>
    <linearGradient id="linear-gradient-2" x1="1.704" y1="11.84" x2="1.712" y2="12.821" gradientUnits="objectBoundingBox">
      <stop offset="0" stop-color="#fada1c"/>
      <stop offset="1" stop-color="#fdcb06"/>
    </linearGradient>
    <linearGradient id="linear-gradient-3" x1="224.051" y1="11.84" x2="224.059" y2="12.82" xlink:href="#linear-gradient-2"/>
    <clipPath id="clip-path">
      <path id="Path_8084" data-name="Path 8084" d="M827.241,339.325a.535.535,0,0,1-.045-.253l-.041.005a.576.576,0,0,0-.491-.445c-.182-.015-.41-.01-.516.162-.2.273-.106.622-.116.931,0,.02.005.056.005.076a3.547,3.547,0,0,1-.061.612.435.435,0,0,0-.046.2,4.659,4.659,0,0,1-.491,1.376.511.511,0,0,0-.1.2,6.858,6.858,0,0,1-.521.748.647.647,0,0,0-.081.086,4.931,4.931,0,0,1-.42.44c-.035.02-.061.045-.091.066a3.282,3.282,0,0,1-.572.45c-.025.015-.05.035-.081.056a8.131,8.131,0,0,1-4.4,1.224,8.219,8.219,0,0,1-3.783-.8c-.02-.01-.071-.03-.091-.04a5.08,5.08,0,0,1-.582-.329c-.04-.02-.081-.045-.126-.066a3.868,3.868,0,0,1-.531-.374c-.056-.051-.116-.091-.177-.137a4.262,4.262,0,0,1-.526-.48c-.041-.046-.081-.086-.121-.126a5.047,5.047,0,0,1-1.209-2.028,6.251,6.251,0,0,1-.212-1.892.678.678,0,0,0-.87-.263c-.126.091-.141.258-.238.374a5.941,5.941,0,0,0,1.695,4.537.082.082,0,0,0,.056.081c.2.187.4.379.6.562a.809.809,0,0,0,.121.1c.2.167.42.319.632.475a1.042,1.042,0,0,0,.126.081,5.7,5.7,0,0,0,.84.465.668.668,0,0,0,.076.05,9.119,9.119,0,0,0,3.06.875,1.645,1.645,0,0,1,.349.035c.506.03,1.012.015,1.517.005a9.1,9.1,0,0,0,4.482-1.437l.015.02c.04-.036.076-.066.116-.1.207-.152.41-.313.612-.481a1.557,1.557,0,0,0,.142-.121,6.664,6.664,0,0,0,.668-.744l.03.015c.015-.025.041-.076.056-.1.172-.233.329-.476.481-.718.01-.015.035-.04.045-.056l-.02-.02c.015-.02.05-.061.066-.081a5.948,5.948,0,0,0,.612-1.786.087.087,0,0,0,.056-.081,4.719,4.719,0,0,0,.056-.6A3.448,3.448,0,0,0,827.241,339.325Z" transform="translate(-810.689 -338.627)" fill="none"/>
    </clipPath>
  </defs>
  <g id="Group_8473" data-name="Group 8473" transform="translate(0.054 0.046)">
    <path id="Path_8046" data-name="Path 8046" d="M783.343,331.829c-.015-.051-.03-.1-.05-.152q-17.974.008-35.938.005a.211.211,0,0,0-.056.116q0,13.938-.005,27.871a2.255,2.255,0,0,0,.713,1.285c.015.005.051.01.066.015a1.758,1.758,0,0,0,.708.384c.187-.01.369.071.557.051h14.871a1.2,1.2,0,0,0,.425-.035c.005-.02.01-.056.015-.076s.01-.081.015-.111c.319-1.781.627-3.566.966-5.347.01-.076.02-.152.03-.228-1.376-.005-2.757,0-4.133-.005-.334-.01-.678,0-1.012-.041-.572-.025-1.148,0-1.72-.06-.708,0-1.411-.066-2.119-.066-.556-.056-1.118-.036-1.679-.061-.364-.045-.738-.025-1.108-.04-.6-.066-1.214-.02-1.816-.086-.637.005-1.275-.05-1.912-.066a.071.071,0,0,0,.01-.03c.212,0,.42-.01.632-.015.47-.061.946-.02,1.416-.086.491,0,.976-.066,1.467-.066.435-.061.875-.025,1.31-.086.511,0,1.012-.066,1.523-.071.42-.056.845-.025,1.264-.081.491.005.976-.071,1.467-.065.481-.056.971-.041,1.452-.091-.046-.187-.081-.374-.121-.562-.035-.116-.177-.091-.268-.106q-1.647-.236-3.283-.465c.071-.056.167-.031.248-.041.85-.066,1.695-.142,2.544-.2.192-.01.38-.046.572-.051a6.621,6.621,0,0,0-.253-.794c-1.816-.278-3.632-.526-5.443-.824.471-.076.946-.111,1.416-.162l.041-.015c1.5-.157,3.01-.334,4.512-.481,1.907-.01,3.809-.005,5.716,0,.061-.01.167.02.177-.066.157-.82.309-1.639.465-2.458a12.275,12.275,0,0,1,1.093-3.3,9.726,9.726,0,0,1,3.763-4.026,10.841,10.841,0,0,1,4.972-1.386,7.807,7.807,0,0,1,1.684.035,2.354,2.354,0,0,1,1.027.435,1.721,1.721,0,0,1,.485.759,12.092,12.092,0,0,1,.476,2.074,1.607,1.607,0,0,1-.1.86,1.088,1.088,0,0,1-.693.45c-.976.253-2,.015-2.974.253a3.616,3.616,0,0,0-2.064,1.259,5.867,5.867,0,0,0-1.1,2.61c-.136.83-.308,1.659-.445,2.494.961.005,1.927-.005,2.893.005a1.018,1.018,0,0,1,.936.576,2.784,2.784,0,0,1,.091,1.482,5.4,5.4,0,0,1-.46,1.6,1.812,1.812,0,0,1-1.022.976,2.037,2.037,0,0,1-.764.076c-.85,0-1.7.01-2.549,0-.137.622-.228,1.259-.349,1.892-.222,1.229-.44,2.463-.662,3.7-.005.04-.01.126-.01.172.4.02.8,0,1.2.01,2.964,0,5.933-.005,8.9,0a1.772,1.772,0,0,0,.92-.223c.167-.061.268-.207.415-.288s.182-.248.3-.354a1.691,1.691,0,0,0,.278-.749.469.469,0,0,0,.076-.01C783.337,350.443,783.353,341.136,783.343,331.829Z" transform="translate(-647.647 -325.63)" stroke="#fcd109" stroke-width="0.094" fill="url(#linear-gradient)"/>
    <path id="Path_8047" data-name="Path 8047" d="M751.979,292.453a5.481,5.481,0,0,1,1.32-.076q12.39.008,24.78,0a4.165,4.165,0,0,1,1.376.4c.364.147.743.263,1.108.42a.6.6,0,0,1,.187.152c-.005.668,0,1.34,0,2.013a1.707,1.707,0,0,0,.035.531c.106.015.162.1.233.162a6.842,6.842,0,0,1,.92.6c.455.324.941.607,1.386.941a.843.843,0,0,1-.035.389,2.108,2.108,0,0,0-.03.435q-17.974.008-35.938.005a1.759,1.759,0,0,0-.051-.491c-.01-.132-.056-.3.071-.395.506-.354,1.042-.673,1.538-1.047.309-.2.607-.4.905-.6a.643.643,0,0,0,.04-.339c0-.734,0-1.467.005-2.2.172-.223.471-.248.708-.359.481-.182.967-.359,1.442-.541m.03.086c-.647.248-1.3.486-1.947.733-.086.015-.132.091-.177.157a1.477,1.477,0,0,1,.01.152c-.005.607,0,1.214-.005,1.821a1.27,1.27,0,0,0,.04.44,1.256,1.256,0,0,1-.217.182c-.733.475-1.442.991-2.175,1.462-.127.076-.268.177-.228.344-.025.091.02.167.116.142,1.588-.01,3.172.01,4.76-.015,2.362,0,4.719,0,7.082,0l.035-.015a1.38,1.38,0,0,0,.324.015q6.418,0,12.843,0c1.345,0,2.7,0,4.046,0,2.226,0,4.456.02,6.682.01.065-.015.086-.061.061-.142-.005-.081.025-.192-.061-.243-.354-.167-.658-.425-1-.627-.121-.1-.278-.157-.369-.293-.349-.2-.673-.44-1.017-.658a1.034,1.034,0,0,1-.172-.162,1.239,1.239,0,0,0,.041-.334c-.005-.642,0-1.285-.005-1.927a.28.28,0,0,0-.081-.283c-.607-.218-1.209-.45-1.811-.673a2.072,2.072,0,0,0-.6-.172H752.338A1.968,1.968,0,0,0,752.009,292.539Z" transform="translate(-647.613 -292.375)" fill="#f8f3b5" stroke="#f8f3b5" stroke-width="0.094"/>
    <path id="Path_8048" data-name="Path 8048" d="M764.4,300.214c.445.187.921.293,1.371.475.243.1.319.359.425.572a2.1,2.1,0,0,1-.359.273c-.466.314-.941.617-1.4.941a1.267,1.267,0,0,1-.04-.44C764.4,301.428,764.39,300.821,764.4,300.214Z" transform="translate(-662.113 -299.008)" fill="#f7b402" stroke="#f7b402" stroke-width="0.094"/>
    <path id="Path_8049" data-name="Path 8049" d="M953.241,300.689c.45-.177.921-.3,1.371-.475.005.642,0,1.285.005,1.927a1.241,1.241,0,0,1-.041.334c-.395-.273-.794-.531-1.189-.8a4.669,4.669,0,0,1-.577-.42C952.917,301.043,953,300.786,953.241,300.689Z" transform="translate(-821.546 -299.008)" fill="#f7b402" stroke="#f7b402" stroke-width="0.094"/>
    <path id="Path_8050" data-name="Path 8050" d="M810.479,304.535a.953.953,0,0,1,1.133.946.963.963,0,0,1-1.148.905,1.1,1.1,0,0,1-.572-.389.949.949,0,0,1-.076-.921A.9.9,0,0,1,810.479,304.535Z" transform="translate(-700.478 -302.646)" fill="#bda727" stroke="#bda727" stroke-width="0.094"/>
    <path id="Path_8051" data-name="Path 8051" d="M907.217,304.849a.972.972,0,0,1,.946-.314.946.946,0,0,1,.238,1.745.977.977,0,0,1-1.163-.2A.963.963,0,0,1,907.217,304.849Z" transform="translate(-782.785 -302.642)" fill="#bda727" stroke="#bda727" stroke-width="0.094"/>
    <path id="Path_8052" data-name="Path 8052" d="M751.606,307.292a2.1,2.1,0,0,0,.359-.273l.035.035c.036.263.01.531.02.794-.015.789.015,1.583-.02,2.372-1.472,0-2.944-.01-4.416,0-.04-.167.1-.268.228-.344.733-.47,1.442-.986,2.175-1.462a1.262,1.262,0,0,0,.218-.182C750.665,307.909,751.14,307.606,751.606,307.292Z" transform="translate(-647.887 -304.766)" fill="#f7e62d" stroke="#f7e62d" stroke-width="0.094"/>
    <path id="Path_8053" data-name="Path 8053" d="M952.474,307.163a.315.315,0,0,1,.051-.177,4.676,4.676,0,0,0,.577.42c.394.268.794.526,1.189.8a1.041,1.041,0,0,0,.172.162c.344.217.667.46,1.017.658.091.137.248.192.369.293.339.2.643.46,1,.627.086.05.056.162.061.243-1.472,0-2.939-.005-4.411,0a6,6,0,0,1-.015-.6C952.479,308.782,952.469,307.972,952.474,307.163Z" transform="translate(-821.259 -304.738)" fill="#f7e62d" stroke="#f7e62d" stroke-width="0.094"/>
    <path id="Path_8054" data-name="Path 8054" d="M783.532,298.254c-1.472,0-2.939-.005-4.411,0a5.931,5.931,0,0,1-.015-.6c0-.809-.01-1.619-.005-2.428a.316.316,0,0,1,.051-.177c.106-.212.187-.47.43-.566.45-.177.921-.3,1.371-.475a.28.28,0,0,0-.081-.283c-.607-.218-1.209-.45-1.811-.673a2.068,2.068,0,0,0-.6-.172H752.612a1.959,1.959,0,0,0-.329.086c-.647.248-1.3.486-1.947.733-.086.015-.132.091-.177.157a1.479,1.479,0,0,1,.01.152c.445.187.92.293,1.371.475.243.1.319.359.425.572l.035.035c.036.263.01.531.02.794-.015.789.015,1.583-.02,2.372-1.472,0-2.944-.01-4.416,0-.025.091.02.167.116.142,1.588-.01,3.171.01,4.76-.015,2.362,0,4.719,0,7.081,0l.035-.015a1.381,1.381,0,0,0,.324.015q6.419,0,12.843,0c1.345,0,2.7,0,4.047,0,2.226,0,4.456.02,6.682.01C783.537,298.38,783.558,298.335,783.532,298.254Zm-26.308-3.02a.9.9,0,0,1,.663-.541.953.953,0,0,1,1.133.946.963.963,0,0,1-1.148.905,1.1,1.1,0,0,1-.571-.389A.949.949,0,0,1,757.225,295.234Zm15.094-.223a.973.973,0,0,1,.946-.314.946.946,0,0,1,.238,1.745.977.977,0,0,1-1.163-.2A.963.963,0,0,1,772.318,295.011Z" transform="translate(-647.887 -292.804)" stroke="#fcd109" stroke-width="0.094" fill="url(#radial-gradient)"/>
    <path id="Path_8055" data-name="Path 8055" d="M915.157,339.207c.071.015-.369-.422-.283-.442a.944.944,0,0,1,.759-.034c.371.194.279.649.237.818a.913.913,0,0,1-.279.43.487.487,0,0,1-.256.111c.046-.248-.1-.288-.111-.541Z" transform="translate(-789.436 -331.534)" stroke="#fcd109" stroke-width="0.094" fill="url(#linear-gradient-2)"/>
    <path id="Path_8056" data-name="Path 8056" d="M807.889,339.11c-.01.253-.157.293-.111.541a.488.488,0,0,1-.256-.111.917.917,0,0,1-.279-.43c-.042-.169-.134-.624.237-.818a.944.944,0,0,1,.759.034c.086.02-.353.457-.283.442Z" transform="translate(-698.337 -331.163)" stroke="#fcd109" stroke-width="0.094" fill="url(#linear-gradient-3)"/>
    <path id="Path_8057" data-name="Path 8057" d="M833.6,362.944a.279.279,0,0,1,.228-.066,11.792,11.792,0,0,1-2.38,3.654,3.534,3.534,0,0,1-.36.282c-.122.089-.241.173-.36.258s-.232.162-.345.247a4.74,4.74,0,0,1-.86.47,8.086,8.086,0,0,1-1.841.6,5.405,5.405,0,0,1-.754.106,4.4,4.4,0,0,1-.966.046c-.177.03-.334-.071-.506-.051q-.224-.031-.446-.076c-.15-.031-.3-.066-.447-.106a7.747,7.747,0,0,1-5.258-4.888,2.659,2.659,0,0,1-.045-.489q.106.213.22.422a7.417,7.417,0,0,0,5.026,4.164c.18.082.374.053.546.124a1.411,1.411,0,0,1,.46.046c.521.01,1.042,0,1.563,0a.77.77,0,0,0,.207-.045,6.664,6.664,0,0,0,2.511-.625q.238-.108.468-.23.2-.107.393-.23t.365-.258a8.373,8.373,0,0,0,2.3-2.808C833.422,363.294,833.518,363.11,833.6,362.944Z" transform="translate(-708.544 -352.031)" fill="#bda727" stroke="#bda727" stroke-width="0.094"/>
    <path id="Path_8058" data-name="Path 8058" d="M820.4,384.747a10.843,10.843,0,0,1,4.972-1.386,7.81,7.81,0,0,1,1.684.035,2.355,2.355,0,0,1,1.027.435,2.17,2.17,0,0,1-.435-.076,7.547,7.547,0,0,0-1.265-.061,13.286,13.286,0,0,0-3.627.43,8.519,8.519,0,0,0-1.8.728,8.965,8.965,0,0,0-2.555,2.094,10.963,10.963,0,0,0-2.367,5.17c-.172,1.006-.369,2.008-.526,3.02-.253.025-.511.01-.764.01q-1.669-.007-3.339-.02c-.238.01-.47-.045-.708-.03-2.023.01-4.047-.005-6.07-.005l.04-.015c1.5-.157,3.01-.334,4.512-.481,1.907-.01,3.809-.005,5.716,0,.061-.01.167.02.177-.066.157-.819.309-1.639.465-2.458a12.285,12.285,0,0,1,1.093-3.3A9.724,9.724,0,0,1,820.4,384.747Z" transform="translate(-696.165 -369.338)" fill="#0d69b3" stroke="#0d69b3" stroke-width="0.094"/>
    <path id="Path_8059" data-name="Path 8059" d="M790.014,386.125a13.288,13.288,0,0,1,3.627-.43,7.549,7.549,0,0,1,1.265.061,2.167,2.167,0,0,0,.435.076,1.721,1.721,0,0,1,.486.759,12.056,12.056,0,0,1,.476,2.074,1.6,1.6,0,0,1-.1.86,1.087,1.087,0,0,1-.693.45c-.976.253-2,.015-2.974.253a3.619,3.619,0,0,0-2.064,1.259,5.868,5.868,0,0,0-1.1,2.61c-.137.83-.309,1.659-.445,2.494a4.46,4.46,0,0,0-.131.587c.956.015,1.912,0,2.868.01.364-.01.728.01,1.092-.015a2.779,2.779,0,0,1,.091,1.482,5.4,5.4,0,0,1-.46,1.6,1.813,1.813,0,0,1-1.022.976,2.04,2.04,0,0,1-.764.076c-.85,0-1.7.01-2.549,0-.136.622-.228,1.259-.349,1.892-.222,1.229-.44,2.463-.663,3.7,0,.041-.01.126-.01.172v.005c-2.21,0-4.416.005-6.626,0,0-.02.01-.056.015-.076s.01-.081.015-.111c.005.04.01.116.015.152.136.015.384.086.42-.111.344-1.861.663-3.733,1.017-5.595a1.065,1.065,0,0,0-.42,0c-.02.071-.04.141-.066.212q.015-.114.03-.228c-1.376-.005-2.757,0-4.133-.005-.334-.01-.678,0-1.012-.04-.571-.025-1.148,0-1.719-.061-.708,0-1.411-.066-2.119-.066-.556-.056-1.118-.035-1.679-.061-.364-.045-.738-.025-1.108-.04-.6-.066-1.214-.02-1.816-.086-.637.005-1.275-.051-1.912-.066a.071.071,0,0,0,.01-.03c.213,0,.42-.01.632-.015.471-.061.946-.02,1.416-.086.491,0,.976-.066,1.467-.066.435-.06.875-.025,1.31-.086.511,0,1.012-.066,1.523-.071.42-.056.845-.025,1.265-.081.491.005.976-.071,1.467-.066.48-.056.971-.04,1.451-.091-.045-.187-.081-.374-.121-.562-.035-.116-.177-.091-.268-.106q-1.647-.236-3.283-.465c.071-.056.167-.031.248-.04.85-.066,1.695-.142,2.544-.2.192-.01.379-.046.572-.051a6.576,6.576,0,0,0-.253-.794c-1.816-.278-3.632-.526-5.443-.824.47-.076.946-.111,1.416-.162,2.023,0,4.047.015,6.07,0,.238-.015.47.041.708.03q1.67.015,3.339.02c.253,0,.511.015.764-.01.157-1.012.354-2.013.526-3.02a10.962,10.962,0,0,1,2.367-5.17,8.966,8.966,0,0,1,2.555-2.094A8.517,8.517,0,0,1,790.014,386.125Z" transform="translate(-663.422 -371.338)" fill="#107bd4" stroke="#107bd4" stroke-width="0.094"/>
    <path id="Path_8060" data-name="Path 8060" d="M914.674,456.513c.961.005,1.927-.005,2.893.005a1.018,1.018,0,0,1,.936.576c-.364.025-.728.005-1.092.015-.956-.01-1.912.005-2.868-.01A4.441,4.441,0,0,1,914.674,456.513Z" transform="translate(-789.164 -431.261)" fill="#0d69b3" stroke="#0d69b3" stroke-width="0.094"/>
    <path id="Path_8061" data-name="Path 8061" d="M861.227,487.218a1.065,1.065,0,0,1,.42,0c-.354,1.862-.673,3.733-1.017,5.595-.035.2-.283.126-.42.111-.005-.035-.01-.111-.015-.152.319-1.781.627-3.566.966-5.347C861.187,487.36,861.207,487.289,861.227,487.218Z" transform="translate(-743.179 -457.226)" fill="#0d69b3" stroke="#0d69b3" stroke-width="0.094"/>
    <path id="Path_8062" data-name="Path 8062" d="M827.241,339.325a.535.535,0,0,1-.045-.253l-.041.005a.576.576,0,0,0-.491-.445c-.182-.015-.41-.01-.516.162-.2.273-.106.622-.116.931,0,.02.005.056.005.076a3.547,3.547,0,0,1-.061.612.435.435,0,0,0-.046.2,4.659,4.659,0,0,1-.491,1.376.511.511,0,0,0-.1.2,6.858,6.858,0,0,1-.521.748.647.647,0,0,0-.081.086,4.931,4.931,0,0,1-.42.44c-.035.02-.061.045-.091.066a3.282,3.282,0,0,1-.572.45c-.025.015-.05.035-.081.056a8.131,8.131,0,0,1-4.4,1.224,8.219,8.219,0,0,1-3.783-.8c-.02-.01-.071-.03-.091-.04a5.08,5.08,0,0,1-.582-.329c-.04-.02-.081-.045-.126-.066a3.868,3.868,0,0,1-.531-.374c-.056-.051-.116-.091-.177-.137a4.262,4.262,0,0,1-.526-.48c-.041-.046-.081-.086-.121-.126a5.047,5.047,0,0,1-1.209-2.028,6.251,6.251,0,0,1-.212-1.892.678.678,0,0,0-.87-.263c-.126.091-.141.258-.238.374a5.941,5.941,0,0,0,1.695,4.537.082.082,0,0,0,.056.081c.2.187.4.379.6.562a.809.809,0,0,0,.121.1c.2.167.42.319.632.475a1.042,1.042,0,0,0,.126.081,5.7,5.7,0,0,0,.84.465.668.668,0,0,0,.076.05,9.119,9.119,0,0,0,3.06.875,1.645,1.645,0,0,1,.349.035c.506.03,1.012.015,1.517.005a9.1,9.1,0,0,0,4.482-1.437l.015.02c.04-.036.076-.066.116-.1.207-.152.41-.313.612-.481a1.557,1.557,0,0,0,.142-.121,6.664,6.664,0,0,0,.668-.744l.03.015c.015-.025.041-.076.056-.1.172-.233.329-.476.481-.718.01-.015.035-.04.045-.056l-.02-.02c.015-.02.05-.061.066-.081a5.948,5.948,0,0,0,.612-1.786.087.087,0,0,0,.056-.081,4.719,4.719,0,0,0,.056-.6A3.448,3.448,0,0,0,827.241,339.325Z" transform="translate(-701.289 -331.511)" fill="#fff" stroke="#fff" stroke-width="0.094"/>
    <g id="Group_8471" data-name="Group 8471" transform="translate(109.4 7.116)">
      <g id="Group_8470" data-name="Group 8470" transform="translate(0 0)">
        <g id="Group_8469" data-name="Group 8469">
          <g id="Group_8468" data-name="Group 8468" clip-path="url(#clip-path)">
            <g id="Group_8467" data-name="Group 8467" transform="translate(-0.367 -0.046)">
              <path id="Path_8063" data-name="Path 8063" d="M808.3,341.9c.41.129,1.352-.2,1.618.1" transform="translate(-808.304 -341.328)" fill="none" stroke="#d1d1d1" stroke-width="2"/>
              <path id="Path_8064" data-name="Path 8064" d="M809.838,348.359c.393-.137,1.235-.46,1.585-.27" transform="translate(-809.602 -346.539)" fill="none" stroke="#d1d1d1" stroke-width="2"/>
              <path id="Path_8065" data-name="Path 8065" d="M812.469,354.566c.19.061.564-.272.75-.37a2.76,2.76,0,0,1,.868-.3" transform="translate(-811.828 -351.498)" fill="none" stroke="#d1d1d1" stroke-width="2"/>
              <path id="Path_8066" data-name="Path 8066" d="M816.413,359.759a2.854,2.854,0,0,1,.714-.707c.28-.2,1.048-.72,1.377-.54" transform="translate(-815.166 -355.375)" fill="none" stroke="#d1d1d1" stroke-width="2"/>
              <path id="Path_8067" data-name="Path 8067" d="M820.14,367.026c.222-.177.313-.49.546-.675a4.774,4.774,0,0,1,1-.4" transform="translate(-818.319 -361.698)" fill="none" stroke="#d1d1d1" stroke-width="2"/>
              <path id="Path_8068" data-name="Path 8068" d="M826.331,371.793c.067-.489.563-1.079,1.037-1.037" transform="translate(-823.558 -365.766)" fill="none" stroke="#d1d1d1" stroke-width="2"/>
              <path id="Path_8069" data-name="Path 8069" d="M831.1,375.085c.25-.025.462-.586.631-.775a1.613,1.613,0,0,1,.852-.472" transform="translate(-827.592 -368.374)" fill="none" stroke="#d1d1d1" stroke-width="2"/>
              <path id="Path_8070" data-name="Path 8070" d="M840.52,378.648c-.016-.354.349-1.369.776-1.315" transform="translate(-835.563 -371.331)" fill="none" stroke="#d1d1d1" stroke-width="2"/>
              <path id="Path_8071" data-name="Path 8071" d="M847.532,378.626c-.018-.418.2-1.676.708-1.72" transform="translate(-841.496 -370.971)" fill="none" stroke="#d1d1d1" stroke-width="2"/>
              <path id="Path_8072" data-name="Path 8072" d="M854.5,382.268a2.17,2.17,0,0,1,.371-1.855" transform="translate(-847.349 -373.939)" fill="none" stroke="#d1d1d1" stroke-width="2"/>
              <path id="Path_8073" data-name="Path 8073" d="M862.382,383.145c-.052-.488-.536-1.473,0-1.855" transform="translate(-853.85 -374.681)" fill="none" stroke="#d1d1d1" stroke-width="2"/>
              <path id="Path_8074" data-name="Path 8074" d="M871.744,382.251a2.809,2.809,0,0,1-.27-1.619" transform="translate(-861.729 -374.124)" fill="none" stroke="#d1d1d1" stroke-width="2"/>
              <path id="Path_8075" data-name="Path 8075" d="M879.967,380.16a3.365,3.365,0,0,1-.467-1c-.04-.225.031-.545-.005-.716" transform="translate(-868.536 -372.269)" fill="none" stroke="#d1d1d1" stroke-width="2"/>
              <path id="Path_8076" data-name="Path 8076" d="M887.971,377.614a1.764,1.764,0,0,1-.371-1.585" transform="translate(-875.359 -370.229)" fill="none" stroke="#d1d1d1" stroke-width="2"/>
              <path id="Path_8077" data-name="Path 8077" d="M894.576,373.585a3.934,3.934,0,0,1-.573-1.72" transform="translate(-880.818 -366.706)" fill="none" stroke="#d1d1d1" stroke-width="2"/>
              <path id="Path_8078" data-name="Path 8078" d="M899.928,368.425c-.428-.288-.973-.81-.911-1.382" transform="translate(-885.057 -362.626)" fill="none" stroke="#d1d1d1" stroke-width="2"/>
              <path id="Path_8079" data-name="Path 8079" d="M902.621,363.249A3.629,3.629,0,0,1,900.8,362" transform="translate(-886.57 -358.359)" fill="none" stroke="#d1d1d1" stroke-width="2"/>
              <path id="Path_8080" data-name="Path 8080" d="M905.547,355.645c-.469-.1-2.017-.7-1.922-1.315" transform="translate(-888.956 -351.868)" fill="none" stroke="#d1d1d1" stroke-width="2"/>
              <path id="Path_8081" data-name="Path 8081" d="M907.745,350.2a7.145,7.145,0,0,1-2.125-.91" transform="translate(-890.648 -347.603)" fill="none" stroke="#d1d1d1" stroke-width="2"/>
              <path id="Path_8082" data-name="Path 8082" d="M906.412,345.04a6.606,6.606,0,0,1-1.419-.236c-.464-.08-.895-.236-1.347-.337" transform="translate(-888.979 -343.523)" fill="none" stroke="#d1d1d1" stroke-width="2"/>
              <path id="Path_8083" data-name="Path 8083" d="M906.565,338.8a5.894,5.894,0,0,1-2.259-.472" transform="translate(-889.536 -338.33)" fill="none" stroke="#d1d1d1" stroke-width="2"/>
            </g>
          </g>
        </g>
      </g>
    </g>
    <g id="Group_8472" data-name="Group 8472" transform="translate(0 9.892)">
      <path id="Path_8085" data-name="Path 8085" d="M249.941,356.756a2.949,2.949,0,0,1,2.2.277,1.488,1.488,0,0,1,.5,1.286,2.237,2.237,0,0,1-1.023,2.005,3.486,3.486,0,0,1-2.019.29,1.527,1.527,0,0,1-1.148-.719A2.293,2.293,0,0,1,249.941,356.756Z" transform="translate(-225.394 -356.674)" fill="#107bd4" stroke="#107bd4" stroke-width="0.101"/>
      <path id="Path_8086" data-name="Path 8086" d="M102.216,358.593a.865.865,0,0,1,.844-.775c3.195,0,6.376.014,9.556,0a.926.926,0,0,1,.885.429c.235.415.028.871,0,1.3-.1.581-.069,1.355-.747,1.576-2.324.069-4.647,0-6.97.028-.221,1.466-.429,2.918-.65,4.37,0,.055.014.18.014.235,1.7-.014,3.4,0,5.1-.014a.873.873,0,0,1,.926.871c-.041.512-.152,1.01-.221,1.521a.9.9,0,0,1-.692.733c-1.895.041-3.817-.042-5.712.041-.3,2.088-.664,4.177-.982,6.265a.859.859,0,0,1-.788.788q-1.182.021-2.365,0a.845.845,0,0,1-.788-1.037Q100.9,366.753,102.216,358.593Z" transform="translate(-99.602 -357.64)" fill="#107bd4" stroke="#107bd4" stroke-width="0.101"/>
      <path id="Path_8087" data-name="Path 8087" d="M191.708,357.852c.719-.055,1.452-.014,2.171-.027a.891.891,0,0,1,.926.774,9.615,9.615,0,0,1-.138,1.079c-.581,3.706-1.175,7.413-1.757,11.119a4.34,4.34,0,0,0-.055,1.839c.207.608,1.134.346,1.355.982a4.666,4.666,0,0,1-.056,1.577c-.041.692-.83.844-1.369,1a3.658,3.658,0,0,1-3.444-.913,3.221,3.221,0,0,1-.525-2.586q1.1-7.053,2.213-14.12A.836.836,0,0,1,191.708,357.852Z" transform="translate(-175.044 -357.646)" fill="#107bd4" stroke="#107bd4" stroke-width="0.101"/>
      <path id="Path_8088" data-name="Path 8088" d="M372.008,358.609a.874.874,0,0,1,.83-.774h2.1a.878.878,0,0,1,.83,1.051c-.484,3.07-.982,6.14-1.466,9.21a3.243,3.243,0,0,0,2.074-.844,12.865,12.865,0,0,0,2.088-3.264c.18-.456.276-1.12.871-1.2.788-.028,1.59-.014,2.379,0a.835.835,0,0,1,.761,1.092,9.83,9.83,0,0,1-.913,2.061,15.621,15.621,0,0,1-2.849,3.609c.512,1.535,1.162,3.029,1.729,4.536.166.5.567,1.079.194,1.563-.429.581-1.231.29-1.826.359-.622-.069-1.521.249-1.867-.456-.65-1.507-1.189-3.056-1.853-4.564a8.35,8.35,0,0,1-1.175-.014l-.111.221c-.208,1.383-.429,2.766-.65,4.149a.823.823,0,0,1-.705.65c-.733.028-1.48.014-2.227.014a.862.862,0,0,1-.747-.484,1.527,1.527,0,0,1-.014-.9Q370.75,366.616,372.008,358.609Z" transform="translate(-327.893 -357.656)" fill="#107bd4" stroke="#107bd4" stroke-width="0.101"/>
      <path id="Path_8089" data-name="Path 8089" d="M621.129,369.166a.86.86,0,0,1,.858-.636c.553.014,1.12-.014,1.687.014a.83.83,0,0,1,.76.913c-.083.788-.277,1.577-.332,2.365.539,0,1.093-.014,1.632,0a.853.853,0,0,1,.8.968c-.069.429-.166.844-.235,1.272a.9.9,0,0,1-.719.705c-.664.042-1.314-.028-1.964.042-.276,1.853-.581,3.706-.871,5.56a1.958,1.958,0,0,0,.18,1.286c.373.457,1.023.291,1.549.346a.91.91,0,0,1,.608,1c-.069.47-.083.94-.193,1.4-.166.512-.761.609-1.217.733a4.805,4.805,0,0,1-3.83-.4,3.383,3.383,0,0,1-1.093-3.236c.29-2.24.747-4.467,1-6.721-.387.014-.858.069-1.148-.277-.332-.346-.166-.857-.111-1.286.083-.456.069-1.051.567-1.3a5.64,5.64,0,0,1,1.286-.1C620.6,370.922,620.853,370.037,621.129,369.166Z" transform="translate(-538.581 -366.705)" fill="#107bd4" stroke="#107bd4" stroke-width="0.101"/>
      <path id="Path_8090" data-name="Path 8090" d="M554.46,390.714a7.532,7.532,0,0,1,3.126-1.95.877.877,0,0,1,1.189.788c-.1.761-.277,1.507-.4,2.254a.881.881,0,0,1-.747.733,6.539,6.539,0,0,0-3.471,2.019c-.235.29-.581.567-.622.968-.29,1.936-.595,3.872-.9,5.808a.853.853,0,0,1-.83.788h-2.1a.865.865,0,0,1-.857-.941c.608-3.831,1.217-7.648,1.811-11.479a.843.843,0,0,1,.705-.8c.512-.028,1.023-.014,1.549-.014a.831.831,0,0,1,.8.8c0,.595-.055,1.2-.069,1.812A6.268,6.268,0,0,0,554.46,390.714Z" transform="translate(-479.726 -383.773)" fill="#107bd4" stroke="#107bd4" stroke-width="0.101"/>
      <path id="Path_8091" data-name="Path 8091" d="M236.513,389.947a15.59,15.59,0,0,1,2.268-.069.85.85,0,0,1,.954.65,4.437,4.437,0,0,1-.1,1.134q-.851,5.331-1.687,10.663a.849.849,0,0,1-.8.788c-.747,0-1.494.014-2.254-.014a.87.87,0,0,1-.692-1.051c.595-3.692,1.162-7.371,1.757-11.064A1.1,1.1,0,0,1,236.513,389.947Z" transform="translate(-213.474 -384.762)" fill="#107bd4" stroke="#107bd4" stroke-width="0.101"/>
      <path id="Path_8092" data-name="Path 8092" d="M468.614,388.644a22.1,22.1,0,0,0-6.251-.456,7.189,7.189,0,0,0-4.9,2.614,9.6,9.6,0,0,0-1.77,7.247,4.9,4.9,0,0,0,1.7,3.167,4.2,4.2,0,0,0,3.25.622,7.821,7.821,0,0,0,3.941-2.406c.055.47-.055.94-.028,1.4a.858.858,0,0,0,.844.8h1.411a.848.848,0,0,0,.788-.788q.892-5.622,1.77-11.216A.873.873,0,0,0,468.614,388.644Zm-3.886,6.513a10.662,10.662,0,0,1-2.2,2.78,2.277,2.277,0,0,1-1.811.705c-.664-.138-.982-.83-1.134-1.424a6.082,6.082,0,0,1,.843-4.578,2.957,2.957,0,0,1,1.729-1.286,6.031,6.031,0,0,1,3.057.152l.055.055C465.143,392.765,464.907,393.955,464.728,395.158Z" transform="translate(-400.822 -383.279)" fill="#107bd4" stroke="#107bd4" stroke-width="0.101"/>
      <path id="Path_8093" data-name="Path 8093" d="M283.122,393.078a5.719,5.719,0,0,0-1.355-3.872,3.5,3.5,0,0,0-2.628-1.093,6.282,6.282,0,0,0-4.287,1.784c-.263.207-.443.512-.733.678,0-.456.041-.913.028-1.383a.821.821,0,0,0-.8-.8h-1.411a.869.869,0,0,0-.83.816q-1.307,8.3-2.628,16.6a.858.858,0,0,0,.844,1.023,18.475,18.475,0,0,0,2.323-.055c.609-.166.595-.871.692-1.383.221-1.217.374-2.434.512-3.665,2.725.526,5.891.166,7.924-1.895A9.547,9.547,0,0,0,283.122,393.078Zm-3.872,1.4a5.573,5.573,0,0,1-1.424,3.485c-1.148,1.093-2.89.94-4.3.567a.947.947,0,0,1-.083-.166c.221-1.2.332-2.42.608-3.609a8.467,8.467,0,0,1,3.056-3.264,1.283,1.283,0,0,1,1.535.277A3.889,3.889,0,0,1,279.25,394.475Z" transform="translate(-242.478 -383.274)" fill="#107bd4" stroke="#107bd4" stroke-width="0.101"/>
    </g>
  </g>
</svg>
