<svg id="Group_10679" data-name="Group 10679" xmlns="http://www.w3.org/2000/svg" width="61.591" height="20.104" viewBox="0 0 61.591 20.104">
  <g id="Group_8117" data-name="Group 8117">
    <path id="Path_6462" data-name="Path 6462" d="M7.573.072h.548a7.474,7.474,0,0,1,5.115,2.16c-.5.506-1,.992-1.488,1.5A5.589,5.589,0,0,0,2.365,7.1a5.753,5.753,0,0,0,1.25,4.444,5.531,5.531,0,0,0,4.03,1.984,5.365,5.365,0,0,0,4.01-1.374A4.377,4.377,0,0,0,12.988,9.3c-1.715,0-3.431.01-5.146,0V7.171h7.223a7.323,7.323,0,0,1-1.9,6.49,7.063,7.063,0,0,1-4.392,1.974,8.066,8.066,0,0,1-4.619-.909A7.953,7.953,0,0,1,.463,10.52,7.619,7.619,0,0,1,.412,5.363,7.868,7.868,0,0,1,3.253,1.591,8.113,8.113,0,0,1,7.573.072Z" transform="translate(0.012 -0.072)" fill="#2b4a91"/>
    <path id="Path_6463" data-name="Path 6463" d="M1989.933,21.884h2.211V36.641c-.734,0-1.478.01-2.211-.01.01-4.909,0-9.828,0-14.747Z" transform="translate(-1940.908 -21.347)" fill="#2b4a91"/>
    <path id="Path_6464" data-name="Path 6464" d="M651.214,225.889a5.193,5.193,0,0,1,3.968.847,4.854,4.854,0,0,1,1.953,3.1,5,5,0,0,1-5.25,5.994,5.029,5.029,0,0,1-3.762-2.015,5.166,5.166,0,0,1-.682-4.692,4.9,4.9,0,0,1,3.772-3.235m.31,1.963a2.778,2.778,0,0,0-1.447.92,3.278,3.278,0,0,0,.165,4.268,2.752,2.752,0,0,0,2.46.765,2.783,2.783,0,0,0,1.922-1.416,3.269,3.269,0,0,0-.558-3.886,2.788,2.788,0,0,0-2.542-.651Z" transform="translate(-631.218 -220.236)" fill="#2b4a91"/>
    <path id="Path_6465" data-name="Path 6465" d="M1095.974,225.859a5.024,5.024,0,0,1,4.919,8.092,5.111,5.111,0,0,1-8.009-.165,5.215,5.215,0,0,1-.651-4.795,4.908,4.908,0,0,1,3.741-3.131m.31,1.963a2.825,2.825,0,0,0-1.447.909,3.282,3.282,0,0,0,.114,4.227,2.765,2.765,0,0,0,2.521.816,2.835,2.835,0,0,0,1.922-1.416,3.286,3.286,0,0,0-.579-3.9,2.77,2.77,0,0,0-2.532-.641Z" transform="translate(-1065.023 -220.206)" fill="#2b4a91"/>
    <path id="Path_6466" data-name="Path 6466" d="M1537.495,226.446a4.225,4.225,0,0,1,4.051-.31,3.857,3.857,0,0,1,1.054.775c.01-.279,0-.568.01-.858.692.01,1.385,0,2.088.01v9.115a5.447,5.447,0,0,1-1.354,3.834,4.926,4.926,0,0,1-4.247,1.219,4.806,4.806,0,0,1-3.617-2.883c.62-.3,1.271-.537,1.912-.816a2.842,2.842,0,0,0,2.015,1.736,2.678,2.678,0,0,0,2.583-.827,4.133,4.133,0,0,0,.61-2.821,3.669,3.669,0,0,1-1.684,1.033,4.541,4.541,0,0,1-4.123-1.064,5.087,5.087,0,0,1,.7-8.143m2.139,1.323a2.718,2.718,0,0,0-1.623.94,3.3,3.3,0,0,0,.01,4.144,2.7,2.7,0,0,0,2.325.951,2.626,2.626,0,0,0,1.974-1.312,3.488,3.488,0,0,0-.352-3.906,2.543,2.543,0,0,0-2.335-.816Z" transform="translate(-1497.254 -220.194)" fill="#2b4a91"/>
    <path id="Path_6467" data-name="Path 6467" d="M2125.468,226.717a4.664,4.664,0,0,1,4.743-.94,5.338,5.338,0,0,1,2.956,3.483c-2.242.93-4.475,1.85-6.717,2.78a2.665,2.665,0,0,0,1.426,1.343,2.9,2.9,0,0,0,2.728-.393,4.395,4.395,0,0,0,.765-.816c.568.382,1.137.754,1.705,1.137a5.06,5.06,0,0,1-7.988.506,5.3,5.3,0,0,1,.383-7.1m1.106,1.912a2.951,2.951,0,0,0-.486,1.736q2.247-.93,4.5-1.87a1.859,1.859,0,0,0-1.457-1.023A2.64,2.64,0,0,0,2126.574,228.629Z" transform="translate(-2071.576 -219.938)" fill="#2b4a91"/>
  </g>
</svg>
