<svg id="Group_8466" data-name="Group 8466" xmlns="http://www.w3.org/2000/svg" width="103.729" height="33.859" viewBox="0 0 103.729 33.859">
  <path id="Path_8040" data-name="Path 8040" d="M12.763.072h.922A12.587,12.587,0,0,1,22.3,3.709c-.835.853-1.688,1.671-2.506,2.524a9.413,9.413,0,0,0-15.8,5.674A9.689,9.689,0,0,0,6.1,19.391a9.315,9.315,0,0,0,6.788,3.342,9.035,9.035,0,0,0,6.753-2.315,7.371,7.371,0,0,0,2.245-4.8c-2.889,0-5.778.017-8.667,0V12.029H25.381c.627,3.846-.278,8.18-3.2,10.93a11.9,11.9,0,0,1-7.4,3.324A13.585,13.585,0,0,1,7,24.751,13.4,13.4,0,0,1,.789,17.668,12.832,12.832,0,0,1,.7,8.983,13.25,13.25,0,0,1,5.488,2.63,13.664,13.664,0,0,1,12.763.072Z" transform="translate(0.012 -0.072)" fill="#3780ff"/>
  <path id="Path_8041" data-name="Path 8041" d="M1989.933,21.884h3.724V46.737c-1.235,0-2.489.017-3.724-.017.017-8.267,0-16.551,0-24.836Z" transform="translate(-1907.367 -20.979)" fill="#38b137"/>
  <path id="Path_8042" data-name="Path 8042" d="M653.987,225.952a8.745,8.745,0,0,1,6.683,1.427,8.173,8.173,0,0,1,3.289,5.221,8.416,8.416,0,0,1-8.841,10.094,8.47,8.47,0,0,1-6.335-3.394,8.7,8.7,0,0,1-1.149-7.9,8.259,8.259,0,0,1,6.353-5.448m.522,3.307a4.679,4.679,0,0,0-2.437,1.549,5.52,5.52,0,0,0,.278,7.188,4.635,4.635,0,0,0,4.142,1.288,4.687,4.687,0,0,0,3.237-2.384,5.5,5.5,0,0,0-.94-6.544,4.7,4.7,0,0,0-4.281-1.1Z" transform="translate(-620.31 -216.432)" fill="#fa3913"/>
  <path id="Path_8043" data-name="Path 8043" d="M1098.744,225.922a8.462,8.462,0,0,1,8.284,13.627,8.608,8.608,0,0,1-13.488-.278,8.784,8.784,0,0,1-1.1-8.076,8.267,8.267,0,0,1,6.3-5.273m.522,3.307a4.758,4.758,0,0,0-2.436,1.532,5.528,5.528,0,0,0,.191,7.118,4.657,4.657,0,0,0,4.247,1.375,4.774,4.774,0,0,0,3.237-2.384,5.534,5.534,0,0,0-.974-6.561,4.667,4.667,0,0,0-4.265-1.079Z" transform="translate(-1046.618 -216.402)" fill="#fcbd06"/>
  <path id="Path_8044" data-name="Path 8044" d="M1539.152,226.919a7.116,7.116,0,0,1,6.823-.522,6.5,6.5,0,0,1,1.775,1.305c.018-.47,0-.957.018-1.445,1.166.017,2.332,0,3.516.017v15.35a9.174,9.174,0,0,1-2.28,6.457,8.3,8.3,0,0,1-7.153,2.054,8.093,8.093,0,0,1-6.092-4.856c1.044-.5,2.141-.905,3.22-1.375a4.787,4.787,0,0,0,3.394,2.924,4.511,4.511,0,0,0,4.351-1.392c1.079-1.323,1.079-3.133,1.027-4.751a6.177,6.177,0,0,1-2.837,1.74,7.648,7.648,0,0,1-6.944-1.793,8.568,8.568,0,0,1,1.183-13.714m3.6,2.228a4.577,4.577,0,0,0-2.732,1.584,5.552,5.552,0,0,0,.017,6.979,4.553,4.553,0,0,0,3.916,1.6,4.423,4.423,0,0,0,3.324-2.21,5.875,5.875,0,0,0-.592-6.579,4.283,4.283,0,0,0-3.933-1.375Z" transform="translate(-1471.38 -216.39)" fill="#3780ff"/>
  <path id="Path_8045" data-name="Path 8045" d="M2126.54,227.556a7.855,7.855,0,0,1,7.989-1.584c2.541.957,4.159,3.376,4.977,5.865-3.777,1.566-7.536,3.115-11.312,4.682a4.489,4.489,0,0,0,2.4,2.263,4.874,4.874,0,0,0,4.594-.661,7.418,7.418,0,0,0,1.288-1.375c.957.644,1.915,1.271,2.872,1.914a8.521,8.521,0,0,1-13.453.853,8.921,8.921,0,0,1,.644-11.957m1.862,3.22a4.974,4.974,0,0,0-.818,2.924q3.785-1.566,7.57-3.15a3.13,3.13,0,0,0-2.454-1.723A4.447,4.447,0,0,0,2128.4,230.776Z" transform="translate(-2035.777 -216.139)" fill="#fa3913"/>
</svg>
