<?xml version="1.0" encoding="utf-8"?>
<!-- Generator: Adobe Illustrator 25.0.0, SVG Export Plug-In . SVG Version: 6.00 Build 0)  -->
<svg version="1.1" id="Layer_1" xmlns="http://www.w3.org/2000/svg" xmlns:xlink="http://www.w3.org/1999/xlink" x="0px" y="0px" width="100%" 
   height="100%"
	 viewBox="0 0 199 62" style="enable-background:new 0 0 199 62;" xml:space="preserve">
<style type="text/css">
	.st0{fill:none;}
	.st1{fill:#FFFFFF;}
	.st2{enable-background:new    ;}
</style>
<g id="Group_11135" transform="translate(15158 -3882)">
	<g id="Rectangle_3485" transform="translate(-15158 3882)">
		<g>
			<path class="st0" d="M6,0h187c3.3,0,6,2.7,6,6v50c0,3.3-2.7,6-6,6H6c-3.3,0-6-2.7-6-6V6C0,2.7,2.7,0,6,0z"/>
		</g>
		<g>
			<path class="st1" d="M193,62H6c-3.3,0-6-2.7-6-6V6c0-3.3,2.7-6,6-6h187c3.3,0,6,2.7,6,6v50C199,59.3,196.3,62,193,62z M6,1.3
				C3.4,1.3,1.3,3.4,1.3,6v50c0,2.6,2.1,4.7,4.7,4.7h187c2.6,0,4.7-2.1,4.7-4.7V6c0-2.6-2.1-4.7-4.7-4.7H6z"/>
		</g>
	</g>
	<g class="st2">
		<path class="st1" d="M-15089.5,3902c-0.3,0.6-0.9,1.1-1.5,1.5c-0.7,0.3-1.5,0.5-2.4,0.5h-2.7v-8.5h2.7c0.9,0,1.7,0.2,2.4,0.5
			c0.7,0.3,1.2,0.8,1.5,1.5c0.3,0.6,0.5,1.4,0.5,2.2C-15089,3900.6-15089.2,3901.4-15089.5,3902z M-15091,3902.2
			c0.6-0.6,0.9-1.4,0.9-2.4c0-1-0.3-1.8-0.9-2.4c-0.6-0.6-1.4-0.9-2.5-0.9h-1.5v6.5h1.5C-15092.4,3903-15091.6,3902.7-15091,3902.2z
			"/>
		<path class="st1" d="M-15082.8,3897.7c0.5,0.3,0.9,0.7,1.2,1.2c0.3,0.5,0.4,1.1,0.4,1.8c0,0.7-0.1,1.3-0.4,1.8
			c-0.3,0.5-0.7,0.9-1.2,1.2c-0.5,0.3-1.1,0.4-1.7,0.4s-1.2-0.1-1.7-0.4c-0.5-0.3-0.9-0.7-1.2-1.2s-0.4-1.1-0.4-1.8
			c0-0.7,0.1-1.3,0.4-1.8s0.7-0.9,1.2-1.2c0.5-0.3,1.1-0.4,1.7-0.4S-15083.3,3897.5-15082.8,3897.7z M-15085.6,3898.6
			c-0.3,0.2-0.6,0.4-0.8,0.8s-0.3,0.8-0.3,1.3c0,0.5,0.1,1,0.3,1.3c0.2,0.4,0.5,0.6,0.8,0.8s0.7,0.3,1.1,0.3s0.8-0.1,1.1-0.3
			c0.3-0.2,0.6-0.4,0.8-0.8c0.2-0.4,0.3-0.8,0.3-1.3c0-0.5-0.1-1-0.3-1.3c-0.2-0.4-0.5-0.6-0.8-0.8c-0.3-0.2-0.7-0.3-1.1-0.3
			S-15085.3,3898.4-15085.6,3898.6z"/>
		<path class="st1" d="M-15070.8,3897.4l-1.9,6.6h-1.2l-1.8-5.4l-1.8,5.4h-1.2l-1.9-6.6h1.1l1.4,5.5l1.8-5.5h1.1l1.8,5.5l1.4-5.5
			H-15070.8z"/>
		<path class="st1" d="M-15064.4,3898c0.5,0.5,0.7,1.2,0.7,2.1v3.8h-1.1v-3.7c0-0.7-0.2-1.2-0.5-1.5c-0.3-0.4-0.8-0.5-1.4-0.5
			c-0.6,0-1.1,0.2-1.4,0.6c-0.4,0.4-0.5,1-0.5,1.7v3.5h-1.1v-6.6h1.1v1.6c0.2-0.5,0.5-0.9,0.9-1.2s0.9-0.4,1.5-0.4
			C-15065.5,3897.3-15064.9,3897.5-15064.4,3898z"/>
		<path class="st1" d="M-15060.9,3895.1v8.9h-1.1v-8.9H-15060.9z"/>
		<path class="st1" d="M-15054.5,3897.7c0.5,0.3,0.9,0.7,1.2,1.2c0.3,0.5,0.4,1.1,0.4,1.8c0,0.7-0.1,1.3-0.4,1.8
			c-0.3,0.5-0.7,0.9-1.2,1.2c-0.5,0.3-1.1,0.4-1.7,0.4s-1.2-0.1-1.7-0.4c-0.5-0.3-0.9-0.7-1.2-1.2s-0.4-1.1-0.4-1.8
			c0-0.7,0.1-1.3,0.4-1.8s0.7-0.9,1.2-1.2c0.5-0.3,1.1-0.4,1.7-0.4S-15055,3897.5-15054.5,3897.7z M-15057.3,3898.6
			c-0.3,0.2-0.6,0.4-0.8,0.8s-0.3,0.8-0.3,1.3c0,0.5,0.1,1,0.3,1.3c0.2,0.4,0.5,0.6,0.8,0.8s0.7,0.3,1.1,0.3s0.8-0.1,1.1-0.3
			c0.3-0.2,0.6-0.4,0.8-0.8c0.2-0.4,0.3-0.8,0.3-1.3c0-0.5-0.1-1-0.3-1.3c-0.2-0.4-0.5-0.6-0.8-0.8c-0.3-0.2-0.7-0.3-1.1-0.3
			S-15056.9,3898.4-15057.3,3898.6z"/>
		<path class="st1" d="M-15047.1,3897.8c0.4,0.3,0.8,0.7,0.9,1.3v-1.7h1.1v6.6h-1.1v-1.7c-0.2,0.5-0.5,1-0.9,1.3
			c-0.4,0.3-1,0.5-1.6,0.5c-0.6,0-1.1-0.1-1.6-0.4c-0.5-0.3-0.8-0.7-1.1-1.2s-0.4-1.1-0.4-1.8c0-0.7,0.1-1.3,0.4-1.8
			s0.6-0.9,1.1-1.2c0.5-0.3,1-0.4,1.6-0.4C-15048.1,3897.3-15047.6,3897.5-15047.1,3897.8z M-15050.1,3898.9c-0.4,0.4-0.6,1-0.6,1.8
			s0.2,1.3,0.6,1.8c0.4,0.4,0.9,0.6,1.6,0.6c0.4,0,0.8-0.1,1.2-0.3s0.6-0.5,0.8-0.8c0.2-0.4,0.3-0.8,0.3-1.3c0-0.5-0.1-0.9-0.3-1.3
			c-0.2-0.4-0.5-0.7-0.8-0.8c-0.3-0.2-0.7-0.3-1.2-0.3C-15049.1,3898.3-15049.7,3898.5-15050.1,3898.9z"/>
		<path class="st1" d="M-15039,3897.8c0.4,0.3,0.8,0.7,0.9,1.3v-4h1.1v8.9h-1.1v-1.7c-0.2,0.5-0.5,1-0.9,1.3c-0.4,0.3-1,0.5-1.6,0.5
			c-0.6,0-1.1-0.1-1.6-0.4c-0.5-0.3-0.8-0.7-1.1-1.2s-0.4-1.1-0.4-1.8c0-0.7,0.1-1.3,0.4-1.8s0.6-0.9,1.1-1.2c0.5-0.3,1-0.4,1.6-0.4
			C-15040,3897.3-15039.5,3897.5-15039,3897.8z M-15042,3898.9c-0.4,0.4-0.6,1-0.6,1.8s0.2,1.3,0.6,1.8c0.4,0.4,0.9,0.6,1.6,0.6
			c0.4,0,0.8-0.1,1.2-0.3s0.6-0.5,0.8-0.8c0.2-0.4,0.3-0.8,0.3-1.3c0-0.5-0.1-0.9-0.3-1.3c-0.2-0.4-0.5-0.7-0.8-0.8
			c-0.3-0.2-0.7-0.3-1.2-0.3C-15041,3898.3-15041.6,3898.5-15042,3898.9z"/>
		<path class="st1" d="M-15027.6,3897.7c0.5,0.3,0.9,0.7,1.2,1.2c0.3,0.5,0.4,1.1,0.4,1.8c0,0.7-0.1,1.3-0.4,1.8
			c-0.3,0.5-0.7,0.9-1.2,1.2c-0.5,0.3-1.1,0.4-1.7,0.4s-1.2-0.1-1.7-0.4c-0.5-0.3-0.9-0.7-1.2-1.2s-0.4-1.1-0.4-1.8
			c0-0.7,0.1-1.3,0.4-1.8s0.7-0.9,1.2-1.2c0.5-0.3,1.1-0.4,1.7-0.4S-15028.1,3897.5-15027.6,3897.7z M-15030.4,3898.6
			c-0.3,0.2-0.6,0.4-0.8,0.8s-0.3,0.8-0.3,1.3c0,0.5,0.1,1,0.3,1.3c0.2,0.4,0.5,0.6,0.8,0.8s0.7,0.3,1.1,0.3s0.8-0.1,1.1-0.3
			c0.3-0.2,0.6-0.4,0.8-0.8c0.2-0.4,0.3-0.8,0.3-1.3c0-0.5-0.1-1-0.3-1.3c-0.2-0.4-0.5-0.6-0.8-0.8c-0.3-0.2-0.7-0.3-1.1-0.3
			S-15030.1,3898.4-15030.4,3898.6z"/>
		<path class="st1" d="M-15019.3,3898c0.5,0.5,0.7,1.2,0.7,2.1v3.8h-1.1v-3.7c0-0.7-0.2-1.2-0.5-1.5c-0.3-0.4-0.8-0.5-1.4-0.5
			c-0.6,0-1.1,0.2-1.4,0.6c-0.4,0.4-0.5,1-0.5,1.7v3.5h-1.1v-6.6h1.1v1.6c0.2-0.5,0.5-0.9,0.9-1.2s0.9-0.4,1.5-0.4
			C-15020.4,3897.3-15019.7,3897.5-15019.3,3898z"/>
		<path class="st1" d="M-15010.8,3903v1h-0.8c-0.7,0-1.2-0.2-1.5-0.5c-0.3-0.3-0.5-0.9-0.5-1.6v-3.6h-1v-0.9h1v-1.6h1.1v1.6h1.7v0.9
			h-1.7v3.6c0,0.4,0.1,0.7,0.2,0.9c0.2,0.2,0.4,0.2,0.8,0.2H-15010.8z"/>
		<path class="st1" d="M-15004.1,3898c0.5,0.5,0.7,1.2,0.7,2.1v3.8h-1.1v-3.7c0-0.7-0.2-1.2-0.5-1.5c-0.3-0.4-0.8-0.5-1.4-0.5
			c-0.6,0-1.1,0.2-1.4,0.6c-0.4,0.4-0.5,1-0.5,1.7v3.5h-1.1v-8.9h1.1v3.9c0.2-0.5,0.5-0.9,0.9-1.2s0.9-0.4,1.5-0.4
			C-15005.2,3897.3-15004.6,3897.5-15004.1,3898z"/>
		<path class="st1" d="M-14995.7,3900.9h-5.3c0,0.8,0.2,1.3,0.6,1.7s0.9,0.6,1.5,0.6c0.5,0,1-0.1,1.3-0.4c0.4-0.3,0.6-0.6,0.7-1.1
			h1.2c-0.1,0.5-0.3,0.9-0.5,1.2c-0.3,0.4-0.6,0.6-1.1,0.8c-0.4,0.2-0.9,0.3-1.5,0.3c-0.6,0-1.2-0.1-1.7-0.4
			c-0.5-0.3-0.9-0.7-1.1-1.2s-0.4-1.1-0.4-1.8c0-0.7,0.1-1.3,0.4-1.8s0.7-0.9,1.1-1.2c0.5-0.3,1-0.4,1.7-0.4c0.6,0,1.2,0.1,1.7,0.4
			c0.5,0.3,0.8,0.6,1.1,1.1s0.4,1,0.4,1.5C-14995.7,3900.6-14995.7,3900.8-14995.7,3900.9z M-14997,3899.2c-0.2-0.3-0.4-0.6-0.8-0.7
			s-0.7-0.2-1-0.2c-0.6,0-1.1,0.2-1.5,0.6c-0.4,0.4-0.6,0.9-0.7,1.6h4.2C-14996.8,3899.9-14996.8,3899.5-14997,3899.2z"/>
	</g>
	<g id="Group_10855" transform="translate(-272 91.436)">
		<path id="Path_24594" class="st1" d="M-14837.6,3830.5c-0.7,1.7-1.6,3.4-2.7,5c-1.7,2.6-4.2,5.9-7.2,6c-2.7,0-3.4-1.8-7-1.7
			s-4.4,1.8-7.1,1.7c-3,0-5.4-3-7.1-5.6c-4.9-7.4-5.4-16.1-2.4-20.7c1.8-3.1,5.1-5,8.6-5.2c3.2,0,5.2,1.8,7.9,1.8
			c2.6,0,4.1-1.8,7.9-1.8c3.1,0.1,6,1.7,7.9,4.2C-14845.8,3817.9-14844.7,3827.8-14837.6,3830.5"/>
		<path id="Path_24595" class="st1" d="M-14849.6,3807c1.5-1.9,2.3-4.3,2-6.7c-2.5,0.3-4.7,1.5-6.3,3.4c-1.6,1.8-2.3,4.2-2.1,6.5
			C-14853.4,3810.1-14851.1,3808.9-14849.6,3807"/>
	</g>
	<g class="st2">
		<path class="st1" d="M-15086.7,3924.5h-7.1l-1.2,3.5h-3.7l6.5-17.5h4l6.5,17.5h-3.7L-15086.7,3924.5z M-15087.6,3921.8l-2.6-7.5
			l-2.6,7.5H-15087.6z"/>
		<path class="st1" d="M-15068.4,3914.8c0.9,0.6,1.7,1.4,2.2,2.5c0.5,1.1,0.8,2.3,0.8,3.8s-0.3,2.7-0.8,3.8s-1.3,1.9-2.2,2.5
			s-2,0.8-3.2,0.8c-1.2,0-2.2-0.3-3-0.8c-0.8-0.6-1.4-1.3-1.8-2.2v9.5h-3.5v-20.4h3.5v2.9c0.4-0.9,0.9-1.7,1.8-2.2
			c0.8-0.5,1.8-0.8,3-0.8C-15070.4,3914-15069.3,3914.3-15068.4,3914.8z M-15075.3,3918.1c-0.7,0.7-1,1.7-1,2.9c0,1.2,0.3,2.2,1,2.9
			c0.7,0.7,1.6,1.1,2.6,1.1c1.1,0,2-0.4,2.7-1.1c0.7-0.7,1-1.7,1-2.9s-0.3-2.2-1-3c-0.7-0.7-1.6-1.1-2.7-1.1
			C-15073.7,3917-15074.6,3917.4-15075.3,3918.1z"/>
		<path class="st1" d="M-15051.5,3914.8c0.9,0.6,1.7,1.4,2.2,2.5c0.5,1.1,0.8,2.3,0.8,3.8s-0.3,2.7-0.8,3.8s-1.3,1.9-2.2,2.5
			c-0.9,0.6-2,0.8-3.1,0.8c-1.2,0-2.2-0.3-3-0.8c-0.8-0.6-1.4-1.3-1.8-2.2v9.5h-3.5v-20.4h3.5v2.9c0.3-0.9,0.9-1.7,1.8-2.2
			c0.8-0.5,1.8-0.8,3-0.8C-15053.5,3914-15052.4,3914.3-15051.5,3914.8z M-15058.4,3918.1c-0.7,0.7-1,1.7-1,2.9c0,1.2,0.3,2.2,1,2.9
			c0.7,0.7,1.6,1.1,2.6,1.1c1.1,0,2-0.4,2.6-1.1c0.7-0.7,1-1.7,1-2.9s-0.3-2.2-1-3c-0.7-0.7-1.5-1.1-2.6-1.1
			C-15056.8,3917-15057.7,3917.4-15058.4,3918.1z"/>
		<path class="st1" d="M-15029.1,3925.7c-0.4,0.8-1.1,1.4-2,1.8c-0.9,0.5-2,0.7-3.2,0.7c-1.2,0-2.4-0.2-3.3-0.6
			c-1-0.4-1.8-1-2.4-1.8s-0.9-1.7-1-2.8h3.8c0.1,0.7,0.4,1.3,0.9,1.8s1.1,0.7,2,0.7c0.7,0,1.3-0.2,1.7-0.6c0.4-0.4,0.6-0.9,0.6-1.5
			c0-0.5-0.2-1-0.5-1.4s-0.7-0.6-1.2-0.9s-1.1-0.5-2-0.8c-1.1-0.4-2-0.7-2.7-1.1c-0.7-0.4-1.3-0.9-1.8-1.6c-0.5-0.7-0.7-1.6-0.7-2.7
			c0-1.5,0.5-2.7,1.6-3.6c1.1-0.9,2.5-1.3,4.3-1.3c1.9,0,3.4,0.5,4.5,1.4c1.1,0.9,1.7,2.1,1.9,3.6h-3.8c-0.1-0.6-0.4-1.2-0.8-1.6
			c-0.4-0.4-1-0.6-1.8-0.6c-0.7,0-1.2,0.2-1.6,0.5c-0.4,0.3-0.6,0.8-0.6,1.5c0,0.5,0.2,0.9,0.5,1.3c0.3,0.3,0.7,0.6,1.2,0.8
			s1.1,0.5,1.9,0.7c1.1,0.4,2.1,0.8,2.8,1.1c0.7,0.4,1.3,0.9,1.8,1.6s0.8,1.6,0.8,2.8
			C-15028.4,3924.1-15028.7,3924.9-15029.1,3925.7z"/>
		<path class="st1" d="M-15018.4,3925v3h-1.8c-1.6,0-2.7-0.4-3.6-1.1c-0.8-0.8-1.2-2-1.2-3.8v-6h-1.9v-3h1.9v-3.4h3.5v3.4h3.1v3
			h-3.1v6c0,0.7,0.1,1.1,0.4,1.4c0.3,0.3,0.7,0.4,1.3,0.4H-15018.4z"/>
		<path class="st1" d="M-15005.9,3914.8c1.1,0.6,1.9,1.4,2.5,2.5c0.6,1.1,0.9,2.3,0.9,3.8s-0.3,2.7-0.9,3.8
			c-0.6,1.1-1.5,1.9-2.5,2.5c-1.1,0.6-2.3,0.9-3.6,0.9c-1.3,0-2.6-0.3-3.6-0.9c-1.1-0.6-1.9-1.4-2.5-2.5c-0.6-1.1-0.9-2.3-0.9-3.8
			s0.3-2.7,0.9-3.8c0.6-1.1,1.5-1.9,2.5-2.5c1.1-0.6,2.3-0.9,3.6-0.9C-15008.2,3914-15006.9,3914.3-15005.9,3914.8z M-15012,3918.1
			c-0.7,0.7-1,1.7-1,3s0.3,2.3,1,3s1.5,1,2.5,1c1,0,1.8-0.3,2.5-1s1-1.7,1-3s-0.3-2.3-1-3s-1.5-1-2.5-1
			C-15010.5,3917-15011.3,3917.4-15012,3918.1z"/>
		<path class="st1" d="M-14994.3,3914.7c0.8-0.5,1.8-0.8,2.8-0.8v3.8h-1c-2.6,0-3.9,1.2-3.9,3.6v6.7h-3.5v-13.8h3.5v2.6
			C-14995.9,3915.9-14995.2,3915.2-14994.3,3914.7z"/>
		<path class="st1" d="M-14976.6,3921.8h-10.1c0,1.2,0.4,2.1,1,2.7c0.6,0.6,1.4,0.9,2.3,0.9c0.8,0,1.5-0.2,2-0.6
			c0.5-0.4,0.9-0.9,1-1.6h3.7c-0.2,1-0.6,1.8-1.2,2.6c-0.6,0.8-1.4,1.4-2.3,1.8s-2,0.6-3.1,0.6c-1.4,0-2.6-0.3-3.6-0.9
			s-1.9-1.4-2.5-2.5c-0.6-1.1-0.9-2.3-0.9-3.8s0.3-2.7,0.9-3.8c0.6-1.1,1.4-1.9,2.5-2.5s2.2-0.9,3.6-0.9c1.4,0,2.6,0.3,3.6,0.9
			s1.8,1.3,2.4,2.3c0.6,1,0.8,2.1,0.8,3.4C-14976.5,3920.9-14976.5,3921.3-14976.6,3921.8z M-14980.9,3917.6
			c-0.6-0.6-1.4-0.9-2.4-0.9c-1,0-1.8,0.3-2.4,0.9c-0.7,0.6-1,1.4-1.1,2.6h6.7C-14980,3919.1-14980.3,3918.2-14980.9,3917.6z"/>
	</g>
</g>
</svg>
