<svg id="Group_10678" data-name="Group 10678" xmlns="http://www.w3.org/2000/svg" width="97.831" height="20.886" viewBox="0 0 97.831 20.886">
  <g id="Group_8115" data-name="Group 8115" transform="translate(0 0)">
    <path id="Path_6457" data-name="Path 6457" d="M764.306,89.759V88.039H762.17V85.364l-.072.022L760.091,86l-.04.012v2.027h-3.167V86.91a1.794,1.794,0,0,1,.349-1.2,1.232,1.232,0,0,1,.979-.4,2.28,2.28,0,0,1,.929.211l.079.035V83.748l-.037-.014A3.618,3.618,0,0,0,758,83.576a3.479,3.479,0,0,0-1.683.4,2.878,2.878,0,0,0-1.155,1.142,3.4,3.4,0,0,0-.409,1.675v1.241h-1.488v1.721h1.488v7.248h2.136V89.759h3.167v4.606c0,1.9.895,2.858,2.66,2.858a4.363,4.363,0,0,0,.907-.1,2.5,2.5,0,0,0,.66-.209l.028-.017V95.161l-.087.057a1.5,1.5,0,0,1-.43.187,1.63,1.63,0,0,1-.422.072,1.144,1.144,0,0,1-.909-.331,1.783,1.783,0,0,1-.289-1.152V89.759Zm-15.815,5.718a2.265,2.265,0,0,1-1.817-.763,3.241,3.241,0,0,1-.653-2.156,3.369,3.369,0,0,1,.653-2.213,2.23,2.23,0,0,1,1.8-.776,2.2,2.2,0,0,1,1.752.742,3.3,3.3,0,0,1,.64,2.2,3.522,3.522,0,0,1-.6,2.222,2.142,2.142,0,0,1-1.773.749m.095-7.655a4.684,4.684,0,0,0-3.491,1.288,4.83,4.83,0,0,0-1.261,3.516,4.574,4.574,0,0,0,1.231,3.357,4.467,4.467,0,0,0,3.3,1.24,4.556,4.556,0,0,0,3.422-1.306,4.817,4.817,0,0,0,1.261-3.481,4.7,4.7,0,0,0-1.183-3.382,4.358,4.358,0,0,0-3.284-1.232m-8.2,0a3.861,3.861,0,0,0-2.474.765,2.44,2.44,0,0,0-.964,1.99,2.785,2.785,0,0,0,.208,1.112,2.233,2.233,0,0,0,.638.834,5.552,5.552,0,0,0,1.3.726,9.662,9.662,0,0,1,1.08.5,1.5,1.5,0,0,1,.475.39.876.876,0,0,1,.132.508c0,.6-.451.9-1.38.9a3.794,3.794,0,0,1-1.168-.214,4.387,4.387,0,0,1-1.2-.606l-.089-.064v2.056l.033.015a5.289,5.289,0,0,0,1.132.35,6.075,6.075,0,0,0,1.209.14,4.1,4.1,0,0,0,2.612-.769,2.487,2.487,0,0,0,.973-2.037,2.343,2.343,0,0,0-.523-1.541,4.485,4.485,0,0,0-1.778-1.132,4.58,4.58,0,0,1-1.267-.658.921.921,0,0,1-.255-.691.769.769,0,0,1,.324-.639,1.456,1.456,0,0,1,.909-.257,3.72,3.72,0,0,1,1.082.166,3.477,3.477,0,0,1,.945.438l.087.06v-1.95L742.4,88.2a4.659,4.659,0,0,0-.959-.268,5.858,5.858,0,0,0-1.052-.109m-9.005,7.655a2.266,2.266,0,0,1-1.817-.763,3.242,3.242,0,0,1-.653-2.156,3.369,3.369,0,0,1,.653-2.213,2.228,2.228,0,0,1,1.8-.776,2.2,2.2,0,0,1,1.752.742,3.3,3.3,0,0,1,.64,2.2,3.523,3.523,0,0,1-.6,2.222,2.141,2.141,0,0,1-1.773.749m.1-7.655a4.683,4.683,0,0,0-3.491,1.288,4.83,4.83,0,0,0-1.262,3.516,4.573,4.573,0,0,0,1.232,3.357,4.466,4.466,0,0,0,3.3,1.24,4.556,4.556,0,0,0,3.422-1.306,4.818,4.818,0,0,0,1.261-3.481,4.7,4.7,0,0,0-1.184-3.382,4.357,4.357,0,0,0-3.283-1.232m-7.995,1.769V88.039h-2.11v8.969h2.11V92.42a3.2,3.2,0,0,1,.526-1.905,1.613,1.613,0,0,1,1.364-.721,2.476,2.476,0,0,1,.634.093,1.6,1.6,0,0,1,.492.2l.089.064V88.023l-.034-.015a2.185,2.185,0,0,0-.826-.126,2.162,2.162,0,0,0-1.411.506,2.856,2.856,0,0,0-.812,1.2ZM717.6,87.823a5.207,5.207,0,0,0-2.565.617,4.154,4.154,0,0,0-1.692,1.74,5.54,5.54,0,0,0-.581,2.577,4.755,4.755,0,0,0,.565,2.31,3.969,3.969,0,0,0,1.579,1.6,4.7,4.7,0,0,0,2.306.561,5.049,5.049,0,0,0,2.545-.6l.028-.016V94.679l-.089.065a3.966,3.966,0,0,1-1.032.537,3.12,3.12,0,0,1-1.011.2,2.6,2.6,0,0,1-1.975-.77,2.994,2.994,0,0,1-.728-2.133,3.105,3.105,0,0,1,.759-2.189,2.583,2.583,0,0,1,1.979-.817,3.389,3.389,0,0,1,2.009.7l.088.064V88.3l-.029-.016a3.481,3.481,0,0,0-.976-.33,5.83,5.83,0,0,0-1.179-.127m-6.292.216H709.2v8.968h2.11V88.039Zm-1.033-3.821a1.271,1.271,0,0,0-.9.352,1.163,1.163,0,0,0-.376.88,1.13,1.13,0,0,0,.373.863,1.285,1.285,0,0,0,.9.344,1.3,1.3,0,0,0,.907-.343,1.126,1.126,0,0,0,.377-.863,1.185,1.185,0,0,0-.367-.87,1.258,1.258,0,0,0-.917-.362m-5.264,3.159v9.63h2.153V84.493h-2.98l-3.788,9.3-3.676-9.3h-3.1V97.007h2.023V87.376h.069l3.881,9.631h1.527l3.821-9.63Z" transform="translate(-666.475 -80.311)" fill="#2b4a91"/>
    <path id="Path_6458" data-name="Path 6458" d="M9.924,10.061H0V.137H9.924Z" transform="translate(0 -0.137)" fill="#2b4a91"/>
    <path id="Path_6459" data-name="Path 6459" d="M289.944,10.061H280.02V.137h9.924v9.924Z" transform="translate(-269.062 -0.137)" fill="#2b4a91"/>
    <path id="Path_6460" data-name="Path 6460" d="M9.924,290.178H0v-9.924H9.924Z" transform="translate(0 -269.292)" fill="#2b4a91"/>
    <path id="Path_6461" data-name="Path 6461" d="M289.944,290.178H280.02v-9.924h9.924v9.924Z" transform="translate(-269.062 -269.292)" fill="#2b4a91"/>
  </g>
</svg>
