<svg id="Group_8465" data-name="Group 8465" xmlns="http://www.w3.org/2000/svg" width="160.961" height="34.364" viewBox="0 0 160.961 34.364">
  <g id="Group_8464" data-name="Group 8464" transform="translate(0)">
    <path id="Path_8035" data-name="Path 8035" d="M809.921,93.749V90.919h-3.515v-4.4l-.118.036-3.3,1.01-.065.02v3.334h-5.211V89.061a2.951,2.951,0,0,1,.575-1.968,2.026,2.026,0,0,1,1.61-.658,3.751,3.751,0,0,1,1.528.348l.13.058V83.859l-.061-.022a5.956,5.956,0,0,0-1.953-.261,5.723,5.723,0,0,0-2.769.665,4.734,4.734,0,0,0-1.9,1.879,5.6,5.6,0,0,0-.673,2.756v2.042h-2.448v2.831H794.2v11.925h3.514V93.749h5.211v7.578c0,3.121,1.472,4.7,4.376,4.7a7.18,7.18,0,0,0,1.492-.165,4.122,4.122,0,0,0,1.087-.345l.046-.027v-2.857l-.143.095a2.464,2.464,0,0,1-.707.308,2.684,2.684,0,0,1-.694.118,1.882,1.882,0,0,1-1.5-.545,2.933,2.933,0,0,1-.476-1.9V93.749Zm-26.02,9.408a3.728,3.728,0,0,1-2.99-1.256,5.334,5.334,0,0,1-1.074-3.547,5.545,5.545,0,0,1,1.074-3.641,3.669,3.669,0,0,1,2.961-1.276,3.612,3.612,0,0,1,2.883,1.22,5.435,5.435,0,0,1,1.052,3.612,5.8,5.8,0,0,1-.99,3.657,3.524,3.524,0,0,1-2.917,1.232m.156-12.594a7.707,7.707,0,0,0-5.744,2.119,7.946,7.946,0,0,0-2.075,5.785,7.525,7.525,0,0,0,2.026,5.523,7.349,7.349,0,0,0,5.438,2.04,7.5,7.5,0,0,0,5.63-2.149,7.924,7.924,0,0,0,2.075-5.727,7.731,7.731,0,0,0-1.947-5.564,7.17,7.17,0,0,0-5.4-2.027m-13.484,0a6.353,6.353,0,0,0-4.07,1.258,4.014,4.014,0,0,0-1.586,3.274,4.579,4.579,0,0,0,.342,1.83,3.674,3.674,0,0,0,1.05,1.372,9.138,9.138,0,0,0,2.136,1.195,15.917,15.917,0,0,1,1.777.827,2.471,2.471,0,0,1,.782.642,1.442,1.442,0,0,1,.218.836c0,.991-.742,1.474-2.27,1.474a6.241,6.241,0,0,1-1.921-.352,7.216,7.216,0,0,1-1.967-1l-.146-.1V105.2l.053.025a8.7,8.7,0,0,0,1.863.575,9.994,9.994,0,0,0,1.989.23,6.744,6.744,0,0,0,4.3-1.265,4.093,4.093,0,0,0,1.6-3.352,3.855,3.855,0,0,0-.861-2.536,7.38,7.38,0,0,0-2.925-1.862,7.539,7.539,0,0,1-2.084-1.083,1.516,1.516,0,0,1-.42-1.137,1.267,1.267,0,0,1,.533-1.051,2.4,2.4,0,0,1,1.5-.422,6.12,6.12,0,0,1,1.78.274,5.723,5.723,0,0,1,1.555.721l.144.1V91.206l-.055-.024a7.666,7.666,0,0,0-1.579-.44,9.635,9.635,0,0,0-1.731-.179m-14.817,12.594a3.727,3.727,0,0,1-2.989-1.256,5.332,5.332,0,0,1-1.074-3.547,5.543,5.543,0,0,1,1.074-3.641,3.666,3.666,0,0,1,2.96-1.276,3.613,3.613,0,0,1,2.883,1.22,5.435,5.435,0,0,1,1.052,3.612,5.8,5.8,0,0,1-.99,3.657,3.524,3.524,0,0,1-2.917,1.232m.156-12.594a7.7,7.7,0,0,0-5.744,2.119,7.946,7.946,0,0,0-2.076,5.785,7.524,7.524,0,0,0,2.026,5.523,7.349,7.349,0,0,0,5.437,2.04,7.5,7.5,0,0,0,5.63-2.149,7.926,7.926,0,0,0,2.075-5.727,7.73,7.73,0,0,0-1.947-5.564,7.17,7.17,0,0,0-5.4-2.027m-13.153,2.911V90.919h-3.471v14.756h3.471V98.126a5.26,5.26,0,0,1,.865-3.134,2.654,2.654,0,0,1,2.245-1.186,4.076,4.076,0,0,1,1.044.153,2.639,2.639,0,0,1,.809.327l.146.106v-3.5l-.056-.024a3.6,3.6,0,0,0-1.359-.207,3.557,3.557,0,0,0-2.321.832,4.7,4.7,0,0,0-1.335,1.979Zm-9.687-2.911a8.568,8.568,0,0,0-4.221,1.015,6.836,6.836,0,0,0-2.784,2.863,9.116,9.116,0,0,0-.956,4.241,7.824,7.824,0,0,0,.929,3.8,6.531,6.531,0,0,0,2.6,2.626,7.731,7.731,0,0,0,3.795.922,8.31,8.31,0,0,0,4.187-.98l.046-.026v-3.18l-.146.106a6.525,6.525,0,0,1-1.7.884,5.134,5.134,0,0,1-1.663.322,4.274,4.274,0,0,1-3.249-1.266,4.926,4.926,0,0,1-1.2-3.509,5.11,5.11,0,0,1,1.249-3.6,4.251,4.251,0,0,1,3.256-1.344,5.575,5.575,0,0,1,3.3,1.149l.146.106V91.341l-.047-.026a5.726,5.726,0,0,0-1.606-.543,9.593,9.593,0,0,0-1.94-.208m-10.351.356h-3.471v14.756h3.471V90.919Zm-1.7-6.286a2.091,2.091,0,0,0-1.479.58,1.914,1.914,0,0,0-.62,1.447,1.859,1.859,0,0,0,.613,1.419,2.114,2.114,0,0,0,1.485.565,2.141,2.141,0,0,0,1.492-.565,1.851,1.851,0,0,0,.621-1.42,1.949,1.949,0,0,0-.6-1.432,2.07,2.07,0,0,0-1.509-.6m-8.66,5.2v15.844H715.9V85.084H711l-6.232,15.294L698.72,85.084h-5.1v20.59h3.329V89.828h.114l6.386,15.846h2.512l6.286-15.844Z" transform="translate(-648.96 -78.204)" fill="#706d6e"/>
    <path id="Path_8036" data-name="Path 8036" d="M16.329,16.466H0V.137H16.329Z" transform="translate(0 -0.137)" fill="#f1511b"/>
    <path id="Path_8037" data-name="Path 8037" d="M296.348,16.466H280.02V.137h16.328V16.466Z" transform="translate(-261.991 -0.137)" fill="#80cc28"/>
    <path id="Path_8038" data-name="Path 8038" d="M16.328,296.582H0V280.254H16.328Z" transform="translate(0 -262.219)" fill="#00adef"/>
    <path id="Path_8039" data-name="Path 8039" d="M296.348,296.582H280.02V280.254h16.328v16.328Z" transform="translate(-261.991 -262.219)" fill="#fbbc09"/>
  </g>
</svg>
