<svg xmlns="http://www.w3.org/2000/svg" width="37.13" height="25.997" viewBox="0 0 37.13 25.997">
  <g id="Group_9976" data-name="Group 9976" transform="translate(68 -221)">
    <g id="Group_8933" data-name="Group 8933" transform="translate(-68 221)">
      <path id="Path_21759" data-name="Path 21759" d="M36.365,81.069A4.652,4.652,0,0,0,33.093,77.8C30.187,77,18.565,77,18.565,77s-11.622,0-14.528.765a4.747,4.747,0,0,0-3.272,3.3C0,83.974,0,90,0,90s0,6.056.765,8.931A4.653,4.653,0,0,0,4.037,102.2c2.936.8,14.528.8,14.528.8s11.622,0,14.528-.765a4.652,4.652,0,0,0,3.273-3.272c.765-2.906.765-8.931.765-8.931S37.161,83.974,36.365,81.069Z" transform="translate(0 -77.001)" fill="red"/>
      <path id="Path_21760" data-name="Path 21760" d="M204.969,190.618l9.665-5.566-9.665-5.566Z" transform="translate(-190.105 -172.053)" fill="#fff"/>
    </g>
  </g>
</svg>
